<svg id="Layer_1" data-name="Layer 1" xmlns="http://www.w3.org/2000/svg" viewBox="0 0 744 1052.23"><defs><style>.cls-1{fill:#3c2415;}.cls-2,.cls-40,.cls-45{fill:none;}.cls-2,.cls-3,.cls-40,.cls-45{stroke:#000;}.cls-2,.cls-3{stroke-linecap:square;stroke-width:9px;}.cls-3,.cls-4{fill:#0c0e17;}.cls-5{fill:#0a0b13;}.cls-6{fill:#18194b;}.cls-7{fill:#535370;}.cls-8{fill:#4c60ac;}.cls-9{fill:#81bc6e;}.cls-10{fill:#394d74;}.cls-11{fill:#dfeece;}.cls-12{fill:#2c607f;}.cls-13{fill:#427f8c;}.cls-14{fill:#77c7ac;}.cls-15{fill:#072121;}.cls-16{fill:#42385a;}.cls-17{fill:#b2519b;}.cls-18{fill:#ea1a42;}.cls-19{fill:#481214;}.cls-20{fill:#87906b;}.cls-21{fill:#486249;}.cls-22{fill:#edefa4;}.cls-23{fill:#6e7f4e;}.cls-24{fill:#a6ab77;}.cls-25{fill:#1d3d1e;}.cls-26{fill:#060a08;}.cls-27{fill:#566e66;}.cls-28{fill:#516232;}.cls-29{fill:#0b1812;}.cls-30{fill:#090f0c;}.cls-31{fill:#99a371;}.cls-32{fill:#1e3538;}.cls-33{fill:#0c1a12;}.cls-34{fill:#5f8493;}.cls-35{fill:#4b61ac;}.cls-36{fill:#272a6a;}.cls-37{fill:#0c0d17;}.cls-38{fill:#020202;}.cls-39{fill:#5d75b8;}.cls-40{stroke-linecap:round;stroke-linejoin:round;}.cls-40,.cls-45{stroke-width:7.09px;}.cls-41{fill:#f8e743;}.cls-42{fill:#d68028;}.cls-43{fill:#f7f4b2;}.cls-44{fill:#fff;}</style></defs><title>vector logo</title><path class="cls-1" d="M363.67,115.49C243.33,132.55,99.3,287.77,99.3,392.07v529.5H634V392.07C634,287.77,484,132.55,363.67,115.49Z"/><path class="cls-2" d="M363.67,115.49C243.33,132.55,99.3,287.77,99.3,392.07v529.5H634V392.07C634,287.77,484,132.55,363.67,115.49Z"/><polygon class="cls-3" points="339.8 381.36 241.74 472.58 184.46 413.02 202.99 388.01 219.92 381.36 339.8 381.36"/><polygon points="232.94 404.45 213.15 404.12 204.9 434.38 222.06 437.1 242.5 427.54 232.94 404.45"/><polygon points="201.91 377.07 179.68 405.26 211.19 438.13 220.74 376.08 201.91 377.07"/><polygon points="287.36 400.49 234.91 421.54 248.44 434.13 267.31 445.37 285.38 436.11 305.07 412.94 287.36 400.49"/><path class="cls-4" d="M228.87,274.45s-10.86,3.19-34.82,31.93-31.77,70.46-31.77,70.46l38,4.52,107.38-8.74L314,351Z"/><path class="cls-5" d="M274.62,346.57l-9.85,31.13,41.62.86,1.34-38.43C306,340.64,274.62,346.57,274.62,346.57Z"/><polygon class="cls-5" points="240.63 338.94 246.03 375.16 267 378.55 278.12 340.53 240.63 338.94"/><polygon points="226.65 349.11 213.31 352.92 199.65 370.07 200.28 378.97 233.96 377.06 226.65 349.11"/><polygon class="cls-6" points="243.76 335.86 222.9 350.18 230.46 377.06 254.61 377.06 243.76 335.86"/><polygon class="cls-6" points="221.57 286.52 227.92 321.79 210.45 319.56 184.36 322.86 208.19 285.86 221.57 286.52"/><path d="M208.26,285.76l56.2,18.56L230,270.65s-5.16-5.68-10.11.36Z"/><polygon class="cls-7" points="211.61 319.21 199.65 370.07 225.95 354.2 229.51 346.25 211.61 319.21"/><path class="cls-8" d="M164.07,381.36c-3.49,2.81-2.22,10.32-2.22,10.32l23.3,19,25.31-32.08Z"/><polygon class="cls-8" points="247.62 425.35 234.91 421.54 204.9 434.38 212.54 442.31 267.31 445.37 247.62 425.35"/><polygon class="cls-8" points="300.99 381.36 312.11 404.7 300.99 417.73 280.66 404.07 281.61 381.36 300.99 381.36"/><polygon class="cls-8" points="310.22 344.56 298.77 376.11 341.02 376.11 310.22 344.56"/><polygon class="cls-8" points="275.26 316.38 261.91 376.43 273.03 377.06 290.1 326.01 275.26 316.38"/><polygon class="cls-8" points="188.85 332.59 183.44 328.77 176.5 338.36 189.48 378.97 206.32 378.97 188.85 332.59"/><path class="cls-9" d="M363.23,169.65c-55.74,20.1-103.28,55.4-138.68,95.95L348.42,379.76h10.14V266.56C358.55,177.58,363.23,169.65,363.23,169.65Z"/><path class="cls-9" d="M499,255.81c-77-76.55-134.8-86.15-134.8-86.15s-5.67,7.93-5.67,96.91v113.2h12.39Z"/><polygon class="cls-10" points="435.74 317.05 389.94 301.21 358.55 329.12 396.53 338.81 416.86 337.7 435.74 317.05"/><polygon class="cls-10" points="430.71 200.15 405.77 206.56 421.27 233.93 455.11 217.27 430.71 200.15"/><polygon class="cls-10" points="436.77 263.61 427.54 250.75 399.83 255.7 375.42 270.87 375.75 282.41 415.53 285.89 433.47 290.99 445.02 286.37 436.77 263.61"/><path class="cls-11" d="M408.2,189,361,217.36s-.53-36.23.84-40.94,2.07-7.23,10-4.61S408.2,189,408.2,189Z"/><polygon class="cls-11" points="493.5 250.39 451.33 267.42 455.1 289.77 456.88 296.59 499.03 255.81 493.5 250.39"/><polygon class="cls-11" points="376.09 329.12 368.85 327.54 359.09 329.43 361.29 349.89 392.73 355.48 418.48 334.72 376.09 329.12"/><polygon class="cls-11" points="356.88 285.68 296.13 332.58 299.9 338.56 358.55 329.12 356.88 285.68"/><polygon class="cls-11" points="430.23 238.77 413.86 230.88 387.37 240.19 381.44 254.19 383.64 271.12 426.19 256.27 431.81 248.21 430.23 238.77"/><polygon class="cls-12" points="361.61 333.52 357.2 363.31 387.93 363.31 394.64 356.83 361.61 333.52"/><polygon class="cls-11" points="358.46 186.51 329.81 225.54 358.71 240.18 358.46 186.51"/><path class="cls-11" d="M295.18,237.51l30.54,28.33-2.52,12.91-30.54,3.46-11.33-9.76S287.63,246.32,295.18,237.51Z"/><polygon class="cls-13" points="449.12 216.42 446.6 233.1 473.05 234.36 449.12 216.42"/><polygon class="cls-14" points="349.64 264.9 332.64 282.53 342.09 290.4 350.86 292.22 358.55 298.27 360.98 281.27 349.64 264.9"/><polygon class="cls-15" points="301.48 334.15 329.5 360.91 358.55 341.39 358.55 327.23 301.48 334.15"/><polygon class="cls-15" points="358.4 171.44 301.84 199.62 304.51 208.2 329.5 229.32 360.73 186.67 358.4 171.44"/><polygon class="cls-15" points="406.48 186.15 359.01 214.83 359.01 223.63 433.06 203.82 406.48 186.15"/><polygon class="cls-15" points="449.12 216.42 412.29 231.53 445.54 290.69 455.1 289.77 449.12 216.42"/><polygon class="cls-15" points="378.29 290.08 369.16 278.12 358.55 277.8 358.55 329.12 376.08 329.12 394.97 301.41 378.29 290.08"/><path class="cls-16" d="M571.86,381.36l-96.69,88.57Z"/><path class="cls-17" d="M569.72,383.32l-97.66,89.27-84.44,52.58L249.1,481s-84.34-98.56-90-90.18L156.33,738.9,371.8,624.11l3.52,24.41,200.31,91V420.28C575.63,387.29,569.72,383.32,569.72,383.32Z"/><polygon class="cls-18" points="189.52 476.93 240.31 476.93 240.19 509.04 185.42 509.04 189.52 476.93"/><path class="cls-18" d="M229.11,569.16v-35.1l-4.48,1.49L214.88,546l-25.73,5.21v10.45h-25l-6,7.47v60.5s3.09,1.88,4.07.31,18.7-33.17,18.7-33.17l28.75-31,3,9.33,6,25.77L219,611l-24.27-8.76-1.43,32.27L158.9,649.08V667l20.17-8.59,7.83,26.76-30.57,3.12v31l26.85,5.6,26.14-13.44s5.23-12.32,4.11-11.95S223.5,644.6,223.5,644.6l4.85-17.18,11.83-7.12v-31Z"/><polygon class="cls-18" points="303.79 589.33 281.01 636.75 303.79 636.75 299.68 660.65 257.1 680.43 243.3 659.16 243.3 637.13 260.47 637.13 258.98 624.8 275.79 571.18 288.11 571.18 303.79 589.33"/><polygon class="cls-18" points="549.88 595.3 536.38 589.25 531.96 602.4 515.9 596.8 497.6 562.14 524.55 562.14 545.4 533.69 565.56 533.32 565.56 574.18 531.57 574.18 542.06 589.7 574.53 589.7 574.53 498.59 548.01 498.59 536.06 512.03 530.46 500.83 543.53 497.09 543.53 465.73 566.31 465.73 546.76 439.33 508.57 439.33 492 454.15 486.4 464.6 515.9 464.6 515.9 501.2 480.11 501.2 497.53 525.9 458.39 534.06 436.36 560.57 458.76 599.78 441.21 609.49 427.39 615.1 418.9 625.15 420.67 637.13 415.07 637.5 396.84 612.35 378.62 637.04 478.76 690.09 505.82 634.89 514.78 631.15 521.36 686.99 522.25 698 531.64 688.46 547.5 635.67 575.08 635.88 549.88 595.3"/><rect class="cls-18" x="158.16" y="508.29" width="24.27" height="41.08"/><polygon class="cls-18" points="159.75 387.58 156.96 405.9 180.19 431 176.08 433.61 156.33 433.61 156.33 475.43 189.52 475.43 192.38 421.41 159.75 387.58"/><polygon class="cls-19" points="420.3 581.49 406.11 599.04 416.19 627.04 441.21 609.49 420.3 581.49"/><polygon class="cls-19" points="530.46 500.83 515.9 500.83 515.9 534.81 505.82 534.81 527.1 565.86 559.59 535.55 530.46 500.83"/><rect class="cls-19" x="536.06" y="464.98" width="28.75" height="32.11"/><rect class="cls-19" x="568.18" y="497.47" width="8.22" height="35.48"/><polygon class="cls-19" points="572.28 439.96 544.28 439.96 575.27 469.83 576.02 439.96 572.28 439.96"/><rect class="cls-19" x="512.54" y="433.98" width="27.26" height="6.72"/><rect class="cls-19" x="549.88" y="419.79" width="26.89" height="14.19"/><polygon class="cls-19" points="488.55 457.68 475.17 469.93 475.17 501.2 506.19 501.2 488.55 457.68"/><polygon class="cls-19" points="536.81 586.71 528.6 634.89 496.85 634.89 536.81 586.71"/><polygon class="cls-19" points="522.62 588.58 475.13 606.5 477.44 622.19 507.41 622.16 525.23 615.1 527.25 598.24 522.62 588.58"/><polygon class="cls-19" points="437.1 569.16 465.86 628.16 476.31 626.3 476.31 565.6 437.1 569.16"/><polygon class="cls-19" points="450.17 638.99 438.6 638.62 427.77 661.03 475.13 688.23 450.17 638.99"/><polygon class="cls-19" points="483.97 692.76 526.03 714.32 532.33 685.3 483.97 692.76"/><polygon class="cls-19" points="546.15 634.51 533.08 679.7 560.71 694.64 574.9 678.95 576.39 660.28 546.15 634.51"/><polygon class="cls-19" points="275.04 636.38 260.47 636.38 263.2 676.77 290.82 660.21 275.04 636.38"/><polygon class="cls-19" points="316.12 604.64 295.58 636.38 295.58 661.03 337.01 635.88 316.12 604.64"/><polygon class="cls-19" points="240.19 606.13 240.19 618.46 282.13 628.16 296.7 606.13 240.19 606.13"/><polygon class="cls-19" points="262.85 532.5 240.19 544.89 240.19 553.85 275.79 571.18 281.12 556.56 262.85 532.5"/><polygon class="cls-19" points="217.53 476.55 240.19 509.04 241.74 476.55 217.53 476.55"/><polygon class="cls-19" points="192.38 421.41 192.38 451.16 176.08 451.16 176.08 431 189.52 421.66 192.38 421.41"/><polygon class="cls-19" points="178.32 451.16 164.13 475.81 156.33 475.81 156.33 446.31 179.44 446.31 178.32 451.16"/><polygon class="cls-19" points="156.33 482.15 173.47 508.3 156.33 508.3 156.33 482.15"/><rect class="cls-19" x="182.43" y="509.04" width="13.07" height="40.33"/><polygon class="cls-19" points="164.13 561.69 183.41 596.2 175.33 609.08 156.33 609.08 156.33 562.44 164.13 561.69"/><polygon class="cls-19" points="204.81 562.1 218.65 600.9 240.19 594.18 240.19 546.01 204.81 562.1"/><polygon class="cls-19" points="223.5 681.19 230.97 638.25 209.31 638.25 203.34 606.88 183.41 596.2 173.21 612.46 188.03 640.12 201.85 640.12 188.78 649.08 210.97 708.09 238.43 693.22 240.19 681.19 223.5 681.19"/><polygon class="cls-19" points="189.15 684.93 158.16 688.29 156.33 692.77 199.23 711.81 189.15 684.93"/><polygon class="cls-19" points="216.78 610.61 226.87 638.25 241.8 615.1 216.78 610.61"/><polygon class="cls-20" points="377.07 637.63 347.72 626.09 162.36 737.24 569.03 737.24 377.07 637.63"/><path class="cls-21" d="M313.4,671.44l-2.27,10.06L307.81,700l9.2,13.91s9.27-5.34,9.6-11.6,6.27-18.14,6.27-18.14Z"/><polygon class="cls-22" points="277.14 669.96 250.42 688.43 288.02 689.09 277.14 669.96"/><polygon class="cls-22" points="192.06 722.59 192.06 739.88 167.97 739.88 170.93 732.48 192.06 722.59"/><polygon class="cls-22" points="378.72 641.92 375.32 662.04 379.05 693.37 415 657.41 378.72 641.92"/><rect class="cls-22" x="437.1" y="697.66" width="56.4" height="24.08"/><rect class="cls-21" x="435.62" y="719.98" width="31.53" height="17.8"/><rect class="cls-21" x="411.6" y="679.01" width="28.97" height="38.82"/><rect class="cls-21" x="376.86" y="694.03" width="24.88" height="30.46"/><polygon class="cls-21" points="308.22 652.63 275.76 671.51 283.77 687.81 309.51 687.16 315.94 668.93 308.22 652.63"/><rect class="cls-21" x="215.13" y="719.55" width="44.83" height="18.02"/><polygon class="cls-9" points="311.13 681.5 318.26 713.95 282.84 712.11 265.06 687.99 311.13 681.5"/><polygon class="cls-9" points="414.3 665.61 414.3 695.45 375.32 695.45 375.32 689.94 400.67 681.5 400.67 663.98 414.3 665.61"/><polygon class="cls-9" points="416.57 716.22 440.58 742.17 440.58 716.22 416.57 716.22"/><rect class="cls-9" x="484.05" y="722.38" width="6.81" height="16.52"/><polygon class="cls-9" points="563.86 738.9 520.07 738.9 520.07 713.95 561.59 732.11 563.86 738.9"/><polygon class="cls-9" points="187.52 725.63 187.52 740.23 219.96 740.23 220.06 703.91 187.52 725.63"/><polygon class="cls-9" points="303.02 655.65 313.4 671.44 322.16 675.99 341.07 661.06 341.07 635.53 303.02 655.65"/><rect class="cls-23" x="156.33" y="738.9" width="420.12" height="133.24"/><polygon class="cls-24" points="163.29 738.9 156.33 743.29 191.73 778.3 201.22 738.9 163.29 738.9"/><polygon class="cls-22" points="207.78 738.9 206.69 749.12 215.44 770.27 228.57 779.76 239.88 774.65 241.7 738.9 207.78 738.9"/><polygon class="cls-25" points="289.74 739.68 249.73 740.37 249 742.19 265.05 761.88 277.44 762.62 290.21 744.74 289.74 739.68"/><polygon class="cls-25" points="209.24 738.9 196.11 738.9 193.56 765.9 204.5 773.56 221.28 771 209.24 738.9"/><polygon class="cls-22" points="307.35 738.9 294.95 740.73 329.24 761.89 332.18 756.25 307.35 738.9"/><path class="cls-22" d="M292,744.74l-1.09,8s17.89,4.28,23,25.48l2,2,9-11.75Z"/><path class="cls-22" d="M266.14,804.56l-17,41.81-13.49-17.85s7.69-16.84,14.07-24.32S266.14,804.56,266.14,804.56Z"/><polygon class="cls-22" points="239.15 851.61 226.38 854.89 229.3 873.13 239.51 871.66 239.15 851.61"/><polygon class="cls-26" points="156.33 841.76 157.09 874.58 197.21 874.58 156.33 841.76"/><path class="cls-26" d="M179.34,783.77l-21.15-13.13-1.85,55.8c10.18-11.67,19-8.75,19-8.75L185,795.15Z"/><path class="cls-26" d="M222.64,812.3c-15.78-3.57-39.66,3.93-39.66,3.93l14.59,48.14c19.33-8.39,55.07-5.47,55.07-5.47l3.64-2.59Z"/><path class="cls-27" d="M191.73,778.3l-7.29,18.24-26.26-17.14V749.85S169.85,761.16,191.73,778.3Z"/><polygon class="cls-25" points="294.59 799.82 247.9 788.51 264.68 805.29 261.76 858.9 269.06 873.85 305.16 798.72 294.59 799.82"/><polygon class="cls-9" points="266.14 804.56 265.41 846.5 288.75 839.69 293.13 828.63 266.14 804.56"/><polygon class="cls-28" points="277.81 777.57 294.58 799.82 309.54 803.83 316.47 778.3 277.81 777.57"/><polygon class="cls-29" points="570.31 818.42 552.8 842.85 560.46 843.22 573.59 821.33 570.31 818.42"/><rect class="cls-9" x="465.14" y="740.54" width="5.28" height="23.75"/><polygon class="cls-30" points="558.34 757.84 524.5 792.32 547.06 791.44 557.82 794.63 572.53 801.69 576.62 768.9 558.34 757.84"/><polygon class="cls-30" points="573.65 794.3 565.07 795.29 543.92 808.02 539.35 823.32 575.96 823.32 576.62 821.35 573.65 794.3"/><polygon class="cls-29" points="520.22 824.31 515.6 837.51 538.69 868.84 574.97 846.08 520.22 824.31"/><polygon class="cls-31" points="517.25 738.9 484.93 740.54 487.56 748.12 498.78 814.75 521.87 793.97 517.25 738.9"/><polygon class="cls-22" points="449.31 776.16 444.03 774.84 431.27 771.55 424.24 788.03 427.87 811.12 466.13 817.39 478.33 817.39 449.31 776.16"/><polygon class="cls-28" points="538.68 740.54 506.69 738.9 510.99 765.55 517.25 776.82 529.12 773.85 539.02 763.63 538.68 740.54"/><polygon class="cls-28" points="487.56 748.12 433.8 765.27 468.14 809.46 470.41 819.04 451.12 827.61 475.69 861.25 504.72 842.45 487.56 748.12"/><polygon class="cls-32" points="574.97 846.08 525.82 871.15 575.3 871.15 574.97 846.08"/><polygon class="cls-33" points="455.49 856.21 439.41 874.45 500.76 874.45 455.49 856.21"/><polygon class="cls-25" points="533.41 764.29 510.32 761.32 516.05 797.76 535.06 780.45 533.41 764.29"/><polygon class="cls-9" points="431.5 767.91 428.86 810.46 421.27 814.09 396.49 790.35 395.21 775.83 401.81 772.53 431.5 767.91"/><polygon class="cls-9" points="427.11 808.18 438.09 822 443.96 822.14 470.08 842.12 502.81 810.54 427.11 808.18"/><polygon class="cls-9" points="527.47 740.54 532.85 781.54 576.95 740.54 527.47 740.54"/><polygon class="cls-34" points="386.46 769.44 336.92 746.7 295.23 830.85 311.87 867.46 341.24 874.63 407.11 874.63 412.74 824.27 386.46 769.44"/><polygon class="cls-4" points="417.85 838.96 386.03 873.82 434.06 873.41 417.85 838.96"/><polygon class="cls-4" points="411.97 822.54 395.35 823.75 393.33 851.12 418.73 837.75 411.97 822.54"/><polygon class="cls-4" points="307.18 837.95 299.13 827.38 295.75 825.97 269.23 873.75 287.67 873.75 308.08 856.74 307.18 837.95"/><polygon class="cls-35" points="340.3 867.84 327.59 856.92 320.07 856.02 291.25 873.03 341.41 873.53 340.3 867.84"/><polygon class="cls-35" points="343.43 809.26 336.9 799.1 330.27 798.56 304.28 812.16 299.66 822.01 326.33 823.62 337.79 829.89 343.52 828.1 348.71 820.58 343.43 809.26"/><polygon class="cls-35" points="388.81 773.5 356.05 760.43 345.49 796.59 370.55 799.81 392.08 780.46 388.81 773.5"/><polygon class="cls-36" points="326.33 823.62 324.54 851.73 346.56 846 355.33 821.83 326.33 823.62"/><polygon class="cls-36" points="394 779.79 345.49 796.59 341.19 823.08 389.88 828.99 389.52 823.8 394 779.79"/><polygon class="cls-36" points="417.99 837.23 375.12 851.8 384.87 873.75 388.63 873.75 421.03 839.38 417.99 837.23"/><polygon class="cls-37" points="374.13 740.2 341.73 738.9 331.82 754.94 393.82 779.4 374.13 740.2"/><polygon class="cls-38" points="322.75 772.8 302.35 816.28 336.89 799.1 322.75 772.8"/><polygon class="cls-38" points="397.4 823.8 353.54 822.55 351.75 826.67 349.96 841.71 364.22 855.16 398.65 844.57 397.4 823.8"/><path class="cls-4" d="M571.41,379l-96.24,90.88-55.54-19.62-38.87-27.59L374,380.39,499,255.81S561.89,301.75,571.41,379Z"/><path class="cls-5" d="M528,373.08l-10.58-10.39L526.57,325l-4-5.92-4.73-9.94-12.55-4.26.79-12.2,3.94-3.43s-5-2.37-7.81-4-25-7.69-25-7.69l-32.32,34.68,32.93.32,1.64,21.23-10.52,17.36-22.39,5.13-17.28,14.09-11.6,13.14,3,9.59-7.5,12.9,4.5,3.79,35.51-31.25Z"/><polygon class="cls-36" points="397.28 393.09 419.33 416.66 420.66 393.09 397.28 393.09"/><polygon points="546.16 313.77 524.72 338.43 550.44 357.43 560.03 342.17 546.16 313.77"/><polygon class="cls-36" points="527.06 285.9 498.41 258.05 478.54 280.85 491.4 287.28 504.4 293.12 503.97 298.1 527.06 285.9"/><polygon class="cls-6" points="482.04 307.45 477.06 300.07 449.01 307.45 436.15 315.05 437.03 323.23 478.54 316.51 484.38 319.14 482.04 307.45"/><polygon class="cls-6" points="511.27 314.2 478.54 316.51 467.14 351.59 516.83 339.31 519.46 317.1 511.27 314.2"/><polygon points="451.94 355.09 447.85 357.43 457.2 375.55 529.69 370.29 451.94 355.09"/><polygon class="cls-39" points="499.58 375.26 465.09 376.43 452.52 389.29 482.34 391.63 471.52 419.98 499 429.05 508.94 388.42 499.58 375.26"/><polygon class="cls-39" points="547.75 316.5 517.41 362.69 510.11 314.17 546.96 315.13 547.75 316.5"/><polygon class="cls-39" points="437.43 315.41 418.25 333.98 430.31 373.8 457.78 373.8 437.43 315.41"/><polygon class="cls-6" points="534.08 314.8 524.72 338.43 514.79 345.31 515.39 349.29 525.38 350.57 528.05 346.5 526.76 341.06 533.78 332 537.88 314.9 534.08 314.8"/><polygon class="cls-6" points="447.01 342.89 424.95 356.09 428.11 366.54 457.78 373.8 447.01 342.89"/><polygon class="cls-6" points="508.94 388.42 496.07 392.8 480.86 395.5 482.34 391.63 469.77 391.92 472.4 384.03 456.93 389.64 452.52 389.29 465.09 376.43 499.58 375.26 508.94 388.42"/><polygon class="cls-36" points="505.05 404.32 498.7 396.01 483.5 401.86 485.55 414.72 490.81 409.46 502.21 415.9 505.05 404.32"/><path class="cls-36" d="M434.69,320.6s.29,15.49-2.34,26c10.7-15.06,6-28.41,6-28.41Z"/><polygon class="cls-36" points="418.81 335.83 424.95 356.09 428.56 327.33 418.81 335.83"/><polygon points="527.06 290.5 496.95 315.63 478.54 316.51 475.62 300.44 528.09 287.1 527.06 290.5"/><polygon class="cls-36" points="558.92 338.73 528.52 374.97 570.51 374.7 558.92 338.73"/><polygon class="cls-6" points="436.74 432.84 459.87 455.32 476.78 436.94 436.74 432.84"/><polygon class="cls-4" points="351.75 826.67 322.75 851.55 341.91 874.12 372.52 874.12 351.75 826.67"/><polygon class="cls-38" points="307.18 837.95 279.25 874.12 300.02 874.12 328.39 858.18 307.18 837.95"/><polygon class="cls-25" points="396.17 784.57 429.18 851.69 444.36 821.35 396.17 784.57"/><polygon class="cls-25" points="491.52 777.15 472.39 763.96 472.39 810.79 499.77 810.79 491.52 777.15"/><polygon class="cls-25" points="416.32 738.9 400.16 740.54 390.26 772.2 393.79 779.33 421.93 769.56 416.32 738.9"/><polygon class="cls-32" points="575.29 789.02 547.26 790.34 542.64 814.75 576.62 799.91 575.29 789.02"/><polygon class="cls-9" points="193.56 765.9 191.73 778.3 200.53 787.36 239.88 789.24 239.88 770.27 193.56 765.9"/><polygon class="cls-9" points="285.1 740.37 265.05 761.88 277.81 777.88 294.95 777.88 294.95 738.9 285.1 740.37"/><path class="cls-27" d="M231.86,839.21l-34.28,25.17-11.31-35.74A121.69,121.69,0,0,1,231.86,839.21Z"/><polygon class="cls-13" points="325.72 265.84 292.66 282.21 322.25 311.49 352.16 291.34 325.72 265.84"/><polygon class="cls-13" points="276.29 268.05 273.77 309.91 228.06 268.83 276.29 268.05"/><path class="cls-13" d="M392.77,238.77l-14.48,51.31-19.74-5-1.67-31.48S384.9,239.71,392.77,238.77Z"/><polygon class="cls-13" points="442.51 285.99 415.75 284.73 410.71 311.49 431.49 321.56 451.64 300.15 442.51 285.99"/><polygon class="cls-13" points="304.31 205.08 307.14 249.47 312.18 252.62 356.88 249.47 357.2 235.62 304.31 205.08"/><line class="cls-40" x1="575.97" y1="738.9" x2="156.33" y2="738.9"/><path class="cls-40" d="M360.87,169.7C305.13,189.8,260,225.06,224.55,265.6L348.42,379.76h10.14"/><path class="cls-40" d="M360.38,169.46s61.69,9.79,138.65,86.34L370.94,379.76H358.55"/><path class="cls-40" d="M529.29,288.49C519,276.42,508.84,265.57,499,255.81L370.94,379.76H348.42L224.55,265.6c-33.32,38.16-55.88,81-64.41,120.09a157,157,0,0,0-3.81,33.3V874.12H576V431.2C576,379.21,565.89,337.83,529.29,288.49Z"/><line class="cls-40" x1="245.36" y1="497.46" x2="156.33" y2="639.37"/><line class="cls-40" x1="199.11" y1="571.18" x2="298.86" y2="571.18"/><line class="cls-40" x1="476.69" y1="496.35" x2="575.96" y2="637.12"/><line class="cls-40" x1="475.13" y1="505.7" x2="475.13" y2="688.23"/><line class="cls-40" x1="522.96" y1="565.6" x2="426.71" y2="565.6"/><line class="cls-40" x1="159.88" y1="738.9" x2="340.01" y2="634.14"/><line class="cls-40" x1="241.74" y1="472.58" x2="159.75" y2="387.58"/><polygon class="cls-40" points="375.45 738.9 339.97 738.9 271.19 874.24 436.83 874.21 375.45 738.9"/><path class="cls-40" d="M156.33,745.33s34.61,29,64.1,64.31,47,63.25,47,63.25"/><line class="cls-40" x1="574.31" y1="741.53" x2="436.83" y2="874.21"/><line class="cls-40" x1="573.98" y1="738.9" x2="375.32" y2="637.07"/><line class="cls-40" x1="240.19" y1="505.7" x2="240.19" y2="689.94"/><polygon class="cls-41" points="382.33 381.36 342.43 381.36 241.74 472.58 241.74 504.69 342.43 637.32 378.62 637.04 475.17 506.21 475.17 469.93 382.33 381.36"/><polygon class="cls-42" points="377.79 575.2 376.91 590.86 404.52 601.95 415.9 585.25 377.79 575.2"/><polygon class="cls-43" points="325.94 396.3 310.17 410.59 333.48 412.72 325.94 396.3"/><polygon class="cls-43" points="395.81 412.72 377.99 408.04 375.32 424.24 399.95 433.4 417.82 415.21 395.81 412.72"/><polygon class="cls-43" points="436.7 433.23 429.2 472.58 443.08 472.58 454.73 450.39 436.7 433.23"/><path class="cls-43" d="M326.27,441.15,306.6,472.58h33.68l2.15-4.32C342.43,467.37,326.27,441.15,326.27,441.15Z"/><polygon class="cls-43" points="305.71 499.87 299.59 505.89 324.03 534.43 340.49 539.21 344.41 501.94 305.71 499.87"/><polygon class="cls-43" points="317.82 600.9 324.1 613.18 328.46 615.08 339.68 613.9 341.09 565.52 317.82 600.9"/><polygon class="cls-43" points="435.11 528.52 415.55 523.52 413.67 525.4 413.67 589.27 440.72 549.79 435.11 528.52"/><polygon class="cls-42" points="396.04 452.45 417.95 474.63 430.24 469.55 434.25 448.98 396.04 452.45"/><polygon class="cls-42" points="442.8 513.1 415.55 523.52 440.21 553.58 463.06 522.62 442.8 513.1"/><polygon class="cls-42" points="339.93 531.27 300.92 505.62 296.91 506.42 299.31 525.39 342.43 566.81 339.93 531.27"/><polygon class="cls-42" points="244.54 505.62 262.86 532.5 285.42 504.41 244.54 505.62"/><polygon class="cls-42" points="268.59 450.31 243.71 470.8 288.09 472.58 288.09 461.53 268.59 450.31"/><polygon class="cls-42" points="319.62 428.4 338.86 465.27 342.43 468.75 342.43 435.88 319.62 428.4"/><polygon class="cls-42" points="397.81 396.13 394.44 396.07 378.14 403.55 377.07 407.83 415.55 416.64 397.81 396.13"/><polygon class="cls-40" points="382.33 381.36 342.43 381.36 241.74 472.58 241.74 504.69 342.43 637.32 378.62 637.04 475.17 506.21 475.17 469.93 382.33 381.36"/><polygon class="cls-44" points="475.17 472.58 375.32 472.58 375.32 381.36 342.43 381.36 342.43 472.58 241.74 472.58 241.74 504.41 342.43 504.41 342.43 736.78 375.32 736.78 375.32 504.41 475.17 504.41 475.17 472.58"/><polygon class="cls-45" points="475.17 472.58 375.32 472.58 375.32 381.36 342.43 381.36 342.43 472.58 241.74 472.58 241.74 504.41 342.43 504.41 342.43 736.78 375.32 736.78 375.32 504.41 475.17 504.41 475.17 472.58"/><polygon class="cls-8" points="230.15 379.92 216.17 379.92 208.54 405.34 234.59 417.41 248.89 388.82 230.15 379.92"/><polygon class="cls-8" points="237.45 311.3 246.35 345.93 224.43 354.82 210.45 319.56 237.45 311.3"/><line class="cls-40" x1="347.11" y1="378.55" x2="162.33" y2="378.55"/><polyline class="cls-40" points="370.94 379.75 571.61 379.75 475.17 469.93"/><line class="cls-40" x1="360.53" y1="379.76" x2="360.53" y2="173.57"/></svg>