<svg xmlns="http://www.w3.org/2000/svg" viewBox="0 0 2323 896.25"><defs><style>.cls-1{fill:#0d113b;stroke:#231f20;stroke-miterlimit:10;}.cls-2{fill:#fdfefe;}.cls-3{fill:#3c2415;}.cls-4,.cls-42,.cls-47{fill:none;}.cls-4,.cls-42,.cls-47,.cls-5{stroke:#000;}.cls-4,.cls-5{stroke-linecap:square;stroke-width:9px;}.cls-5,.cls-6{fill:#0c0e17;}.cls-7{fill:#0a0b13;}.cls-8{fill:#18194b;}.cls-9{fill:#535370;}.cls-10{fill:#4c60ac;}.cls-11{fill:#81bc6e;}.cls-12{fill:#394d74;}.cls-13{fill:#dfeece;}.cls-14{fill:#2c607f;}.cls-15{fill:#427f8c;}.cls-16{fill:#77c7ac;}.cls-17{fill:#072121;}.cls-18{fill:#42385a;}.cls-19{fill:#b2519b;}.cls-20{fill:#ea1a42;}.cls-21{fill:#481214;}.cls-22{fill:#87906b;}.cls-23{fill:#486249;}.cls-24{fill:#edefa4;}.cls-25{fill:#6e7f4e;}.cls-26{fill:#a6ab77;}.cls-27{fill:#1d3d1e;}.cls-28{fill:#060a08;}.cls-29{fill:#566e66;}.cls-30{fill:#516232;}.cls-31{fill:#0b1812;}.cls-32{fill:#090f0c;}.cls-33{fill:#99a371;}.cls-34{fill:#1e3538;}.cls-35{fill:#0c1a12;}.cls-36{fill:#5f8493;}.cls-37{fill:#4b61ac;}.cls-38{fill:#272a6a;}.cls-39{fill:#0c0d17;}.cls-40{fill:#020202;}.cls-41{fill:#5d75b8;}.cls-42{stroke-linecap:round;stroke-linejoin:round;}.cls-42,.cls-47{stroke-width:7.09px;}.cls-43{fill:#f8e743;}.cls-44{fill:#d68028;}.cls-45{fill:#f7f4b2;}.cls-46{fill:#fff;}</style></defs><title>vector logo</title><g id="Layer_2" data-name="Layer 2"><rect class="cls-1" x="0.5" y="0.5" width="2322" height="895.25"/><path class="cls-2" d="M686.84,374.15H646.07l-6,15.14H618.38l48-120.4,48.16,120.4H692.86Zm-7.91-20-12.56-31.13L654,354.2Z" transform="translate(47.5 20.5)"/><path class="cls-2" d="M769.57,339.07H753.23v50.22H733.1V268.89h40.08s40.25,0,40.25,35.09c0,19.44-12.38,28-23.22,32l24.6,53.32H792.62Zm-16.34-20h20s20.12,0,20.12-15.14c0-15-20.12-15-20.12-15h-20Z" transform="translate(47.5 20.5)"/><path class="cls-2" d="M973.56,389.29H953.43v-74l-34.57,74H899.94l-36.81-75.51v75.51H843V268.72h20.47l45.75,93.74,43.86-93.74h20.47Z" transform="translate(47.5 20.5)"/><path class="cls-2" d="M1066.09,374.15h-40.76l-6,15.14H997.64l48-120.4,48.16,120.4h-21.67Zm-7.91-20-12.56-31.13-12.38,31.13Z" transform="translate(47.5 20.5)"/><path class="cls-2" d="M1212.12,329.09c0,60.2-70,60.2-70,60.2H1122V269.06h20.12S1212.12,269.06,1212.12,329.09Zm-20,0c0-40.08-50.05-40.08-50.05-40.08v80.15S1192.17,369.17,1192.17,329.09Z" transform="translate(47.5 20.5)"/><path class="cls-2" d="M1285.73,374.15H1245l-6,15.14h-21.67l48-120.4,48.16,120.4h-21.67Zm-7.91-20-12.56-31.13-12.38,31.13Z" transform="translate(47.5 20.5)"/><path class="cls-2" d="M1406.3,369.17v20.12h-64.67V268.89h20.12V369.17Z" transform="translate(47.5 20.5)"/><path class="cls-2" d="M1451.2,289v30.1h60.2v20h-60.2v30.1h60.2v20.12h-80.32V268.89h80.32V289Z" transform="translate(47.5 20.5)"/><path class="cls-2" d="M707,563.87l14.1,14.28a60.28,60.28,0,1,1,0-85.14L707,507.11a40.07,40.07,0,1,0,0,56.76Z" transform="translate(47.5 20.5)"/><path class="cls-2" d="M848.86,535.49a60.11,60.11,0,1,1-60.2-60.2A60,60,0,0,1,848.86,535.49Zm-20.12,0a40.08,40.08,0,1,0-40.08,40.08A40,40,0,0,0,828.74,535.49Z" transform="translate(47.5 20.5)"/><path class="cls-2" d="M957.22,595.69,897.37,510v85.65H877.24V475.29h20.3l60,85.65V475.29h20v120.4Z" transform="translate(47.5 20.5)"/><path class="cls-2" d="M1105.31,525.51v70.17h-20.12v-8.08a60.24,60.24,0,1,1,12.38-94.6l-14.1,14.1a40.1,40.1,0,1,0-28.38,68.45,39.69,39.69,0,0,0,30.1-13.59V545.47H1050.1v-20Z" transform="translate(47.5 20.5)"/><path class="cls-2" d="M1166,545.47h-16.34v50.22h-20.12V475.29h40.08s40.25,0,40.25,35.09c0,19.44-12.38,28-23.22,32l24.6,53.32h-22.19Zm-16.34-20h20s20.12,0,20.12-15.14c0-15-20.12-15-20.12-15h-20Z" transform="translate(47.5 20.5)"/><path class="cls-2" d="M1252.89,495.42v30.1h60.2v20h-60.2v30.1h60.2v20.12h-80.32V475.29h80.32v20.12Z" transform="translate(47.5 20.5)"/><path class="cls-2" d="M1447.76,525.51v70.17h-20.12v-8.08A60.24,60.24,0,1,1,1440,493l-14.1,14.1a40.1,40.1,0,1,0-28.38,68.45,39.69,39.69,0,0,0,30.1-13.59V545.47h-35.09v-20Z" transform="translate(47.5 20.5)"/><path class="cls-2" d="M1540.47,580.55h-40.76l-6,15.14H1472l48-120.4,48.16,120.4h-21.67Zm-7.91-20L1520,529.47l-12.38,31.13Z" transform="translate(47.5 20.5)"/><path class="cls-2" d="M1640.92,495.42h-30.1V595.69h-20.12V495.42h-30.1V475.29h80.32Z" transform="translate(47.5 20.5)"/><path class="cls-2" d="M1661.9,475.29H1682v120.4H1661.9Z" transform="translate(47.5 20.5)"/><path class="cls-2" d="M1830.46,535.49a60.11,60.11,0,1,1-60.2-60.2A60,60,0,0,1,1830.46,535.49Zm-20.12,0a40.08,40.08,0,1,0-40.08,40.08A40,40,0,0,0,1810.33,535.49Z" transform="translate(47.5 20.5)"/><path class="cls-2" d="M1938.82,595.69,1879,510v85.65h-20.12V475.29h20.3l60,85.65V475.29h20v120.4Z" transform="translate(47.5 20.5)"/><path class="cls-2" d="M2055.78,580.55H2015l-6,15.14h-21.67l48-120.4,48.16,120.4H2061.8Zm-7.91-20-12.56-31.13-12.38,31.13Z" transform="translate(47.5 20.5)"/><path class="cls-2" d="M2176.35,575.57v20.12h-64.67V475.29h20.12V575.57Z" transform="translate(47.5 20.5)"/><path class="cls-2" d="M707,770.27l14.1,14.28a60.29,60.29,0,1,1,0-85.14L707,713.51a40.07,40.07,0,1,0,0,56.76Z" transform="translate(47.5 20.5)"/><path class="cls-2" d="M826.5,681.69v120.4H806.38V751.87H756.33v50.22H736.2V681.69h20.12v49.88h50.05V681.69Z" transform="translate(47.5 20.5)"/><path class="cls-2" d="M856.77,776.46a60.48,60.48,0,0,1-6-24.59V681.69h20.12v70.18A39,39,0,0,0,875,768c5,9.29,13.42,13.93,25.8,13.93,12.56,0,21-4.64,25.8-13.93a40.93,40.93,0,0,0,4.3-16.17V681.69H951v70.18a60.48,60.48,0,0,1-6,24.59c-8.26,16.51-23.91,25.63-44.2,25.63C880.68,802.09,865,793,856.77,776.46Z" transform="translate(47.5 20.5)"/><path class="cls-2" d="M1015,751.87H998.67v50.22H978.55V681.69h40.08s40.25,0,40.25,35.09c0,19.44-12.38,28-23.22,32l24.6,53.32h-22.19Zm-16.34-20h20s20.12,0,20.12-15.14c0-15-20.12-15-20.12-15h-20Z" transform="translate(47.5 20.5)"/><path class="cls-2" d="M1165,770.27l14.1,14.28a60.29,60.29,0,1,1,0-85.14l-14.1,14.1a40.07,40.07,0,1,0,0,56.76Z" transform="translate(47.5 20.5)"/><path class="cls-2" d="M1284.53,681.69v120.4h-20.12V751.87h-50.05v50.22h-20.12V681.69h20.12v49.88h50.05V681.69Z" transform="translate(47.5 20.5)"/></g><g id="Layer_1" data-name="Layer 1"><path class="cls-3" d="M294.67,17.69C174.33,34.75,30.3,190,30.3,294.27v529.5H565V294.27C565,190,415,34.75,294.67,17.69Z" transform="translate(47.5 20.5)"/><path class="cls-4" d="M294.67,17.69C174.33,34.75,30.3,190,30.3,294.27v529.5H565V294.27C565,190,415,34.75,294.67,17.69Z" transform="translate(47.5 20.5)"/><polygon class="cls-5" points="318.3 304.06 220.24 395.28 162.96 335.72 181.49 310.71 198.42 304.06 318.3 304.06"/><polygon points="211.44 327.15 191.65 326.82 183.4 357.08 200.56 359.8 221 350.24 211.44 327.15"/><polygon points="180.41 299.77 158.18 327.96 189.69 360.84 199.24 298.78 180.41 299.77"/><polygon points="265.86 323.19 213.41 344.24 226.94 356.83 245.81 368.07 263.88 358.81 283.57 335.64 265.86 323.19"/><path class="cls-6" d="M159.87,176.65s-10.86,3.19-34.82,31.93S93.29,279,93.29,279l38,4.52,107.38-8.74,6.35-21.6Z" transform="translate(47.5 20.5)"/><path class="cls-7" d="M205.62,248.77l-9.85,31.13,41.62.86,1.34-38.43C237,242.84,205.62,248.77,205.62,248.77Z" transform="translate(47.5 20.5)"/><polygon class="cls-7" points="219.13 261.64 224.53 297.86 245.5 301.25 256.62 263.23 219.13 261.64"/><polygon points="205.15 271.81 191.81 275.62 178.15 292.77 178.78 301.67 212.46 299.76 205.15 271.81"/><polygon class="cls-8" points="222.26 258.56 201.4 272.88 208.96 299.76 233.11 299.76 222.26 258.56"/><polygon class="cls-8" points="200.07 209.22 206.42 244.49 188.95 242.26 162.86 245.56 186.69 208.56 200.07 209.22"/><path d="M139.26,188l56.2,18.56L161,172.85s-5.16-5.68-10.11.36Z" transform="translate(47.5 20.5)"/><polygon class="cls-9" points="190.11 241.91 178.15 292.77 204.45 276.91 208.01 268.95 190.11 241.91"/><path class="cls-10" d="M95.07,283.56c-3.49,2.81-2.22,10.32-2.22,10.32l23.3,19,25.31-32.08Z" transform="translate(47.5 20.5)"/><polygon class="cls-10" points="226.12 348.05 213.41 344.24 183.4 357.08 191.04 365.01 245.81 368.07 226.12 348.05"/><polygon class="cls-10" points="279.49 304.06 290.61 327.4 279.49 340.43 259.16 326.77 260.11 304.06 279.49 304.06"/><polygon class="cls-10" points="288.72 267.26 277.27 298.81 319.52 298.81 288.72 267.26"/><polygon class="cls-10" points="253.76 239.08 240.41 299.13 251.53 299.76 268.6 248.71 253.76 239.08"/><polygon class="cls-10" points="167.35 255.29 161.94 251.47 155 261.06 167.98 301.67 184.82 301.67 167.35 255.29"/><path class="cls-11" d="M294.23,71.85C238.49,91.95,191,127.26,155.55,167.8L279.42,282h10.14V168.76C289.55,79.78,294.23,71.85,294.23,71.85Z" transform="translate(47.5 20.5)"/><path class="cls-11" d="M430,158c-77-76.55-134.8-86.15-134.8-86.15s-5.67,7.93-5.67,96.91V282h12.39Z" transform="translate(47.5 20.5)"/><polygon class="cls-12" points="414.24 239.75 368.44 223.91 337.05 251.82 375.03 261.51 395.36 260.4 414.24 239.75"/><polygon class="cls-12" points="409.21 122.85 384.27 129.26 399.77 156.63 433.61 139.97 409.21 122.85"/><polygon class="cls-12" points="415.27 186.31 406.04 173.45 378.33 178.4 353.92 193.57 354.25 205.11 394.03 208.59 411.97 213.69 423.52 209.07 415.27 186.31"/><path class="cls-13" d="M339.2,91.23,292,119.56s-.53-36.23.84-40.94,2.07-7.23,10-4.61S339.2,91.23,339.2,91.23Z" transform="translate(47.5 20.5)"/><polygon class="cls-13" points="472 173.09 429.83 190.12 433.6 212.47 435.38 219.29 477.53 178.51 472 173.09"/><polygon class="cls-13" points="354.59 251.82 347.35 250.24 337.59 252.13 339.79 272.6 371.23 278.18 396.98 257.42 354.59 251.82"/><polygon class="cls-13" points="335.38 208.38 274.63 255.28 278.4 261.26 337.05 251.82 335.38 208.38"/><polygon class="cls-13" points="408.73 161.47 392.36 153.58 365.87 162.9 359.94 176.89 362.14 193.82 404.69 178.97 410.31 170.91 408.73 161.47"/><polygon class="cls-14" points="340.11 256.23 335.7 286.01 366.43 286.01 373.14 279.53 340.11 256.23"/><polygon class="cls-13" points="336.96 109.21 308.31 148.25 337.21 162.88 336.96 109.21"/><path class="cls-13" d="M226.18,139.71,256.72,168l-2.52,12.91-30.54,3.46-11.33-9.76S218.63,148.52,226.18,139.71Z" transform="translate(47.5 20.5)"/><polygon class="cls-15" points="427.62 139.12 425.1 155.8 451.55 157.06 427.62 139.12"/><polygon class="cls-16" points="328.14 187.6 311.14 205.23 320.59 213.1 329.36 214.92 337.05 220.97 339.48 203.97 328.14 187.6"/><polygon class="cls-17" points="279.98 256.86 308 283.61 337.05 264.1 337.05 249.93 279.98 256.86"/><polygon class="cls-17" points="336.9 94.14 280.34 122.32 283.01 130.9 308 152.03 339.23 109.37 336.9 94.14"/><polygon class="cls-17" points="384.98 108.84 337.51 137.53 337.51 146.33 411.56 126.53 384.98 108.84"/><polygon class="cls-17" points="427.62 139.12 390.79 154.23 424.04 213.4 433.6 212.47 427.62 139.12"/><polygon class="cls-17" points="356.79 212.78 347.66 200.82 337.05 200.5 337.05 251.82 354.58 251.82 373.47 224.11 356.79 212.78"/><path class="cls-18" d="M502.86,283.56l-96.69,88.57Z" transform="translate(47.5 20.5)"/><path class="cls-19" d="M500.72,285.52l-97.66,89.27-84.44,52.58L180.1,383.17s-84.34-98.56-90-90.18L87.33,641.1,302.8,526.31l3.52,24.41,200.31,91V322.48C506.63,289.49,500.72,285.52,500.72,285.52Z" transform="translate(47.5 20.5)"/><polygon class="cls-20" points="168.02 399.63 218.81 399.63 218.69 431.74 163.92 431.74 168.02 399.63"/><path class="cls-20" d="M160.11,471.36v-35.1l-4.48,1.49-9.74,10.48-25.73,5.21v10.45h-25l-6,7.47v60.5s3.09,1.88,4.07.31S111.93,499,111.93,499l28.75-31,3,9.33,6,25.77.3,10.1-24.27-8.76-1.43,32.27L89.9,551.28V569.2l20.17-8.59,7.83,26.76-30.57,3.12v31l26.85,5.6,26.14-13.44s5.23-12.32,4.11-11.95S154.5,546.8,154.5,546.8l4.85-17.18,11.83-7.12v-31Z" transform="translate(47.5 20.5)"/><polygon class="cls-20" points="282.29 512.03 259.51 559.46 282.29 559.46 278.18 583.35 235.6 603.13 221.8 581.86 221.8 559.83 238.97 559.83 237.48 547.5 254.28 493.88 266.61 493.88 282.29 512.03"/><polygon class="cls-20" points="528.38 518 514.88 511.96 510.46 525.1 494.4 519.5 476.1 484.84 503.05 484.84 523.9 456.39 544.06 456.02 544.06 496.88 510.07 496.88 520.56 512.4 553.03 512.4 553.03 421.29 526.51 421.29 514.56 434.73 508.96 423.53 522.03 419.79 522.03 388.43 544.81 388.43 525.26 362.03 487.07 362.03 470.5 376.85 464.9 387.31 494.4 387.31 494.4 423.9 458.61 423.9 476.03 448.6 436.89 456.76 414.86 483.27 437.26 522.49 419.71 532.19 405.89 537.8 397.4 547.85 399.17 559.83 393.57 560.2 375.34 535.05 357.12 559.74 457.26 612.79 484.32 557.59 493.28 553.85 499.86 609.69 500.75 620.7 510.14 611.16 526 558.37 553.58 558.58 528.38 518"/><rect class="cls-20" x="136.66" y="431" width="24.27" height="41.08"/><polygon class="cls-20" points="138.25 310.28 135.46 328.6 158.69 353.7 154.58 356.31 134.83 356.31 134.83 398.13 168.02 398.13 170.88 344.11 138.25 310.28"/><polygon class="cls-21" points="398.8 504.19 384.61 521.74 394.69 549.75 419.71 532.19 398.8 504.19"/><polygon class="cls-21" points="508.96 423.53 494.4 423.53 494.4 457.51 484.32 457.51 505.6 488.56 538.09 458.26 508.96 423.53"/><rect class="cls-21" x="514.56" y="387.68" width="28.75" height="32.11"/><rect class="cls-21" x="546.68" y="420.17" width="8.22" height="35.48"/><polygon class="cls-21" points="550.78 362.66 522.78 362.66 553.77 392.53 554.52 362.66 550.78 362.66"/><rect class="cls-21" x="491.04" y="356.68" width="27.26" height="6.72"/><rect class="cls-21" x="528.38" y="342.49" width="26.89" height="14.19"/><polygon class="cls-21" points="467.05 380.38 453.67 392.63 453.67 423.9 484.69 423.9 467.05 380.38"/><polygon class="cls-21" points="515.31 509.42 507.1 557.59 475.35 557.59 515.31 509.42"/><polygon class="cls-21" points="501.12 511.28 453.63 529.21 455.94 544.89 485.91 544.86 503.73 537.8 505.75 520.94 501.12 511.28"/><polygon class="cls-21" points="415.6 491.86 444.36 550.87 454.81 549 454.81 488.3 415.6 491.86"/><polygon class="cls-21" points="428.67 561.69 417.1 561.32 406.27 583.73 453.63 610.93 428.67 561.69"/><polygon class="cls-21" points="462.47 615.46 504.53 637.02 510.83 608 462.47 615.46"/><polygon class="cls-21" points="524.65 557.21 511.58 602.4 539.21 617.34 553.4 601.65 554.89 582.98 524.65 557.21"/><polygon class="cls-21" points="253.54 559.08 238.97 559.08 241.7 599.47 269.32 582.91 253.54 559.08"/><polygon class="cls-21" points="294.62 527.34 274.08 559.08 274.08 583.73 315.51 558.58 294.62 527.34"/><polygon class="cls-21" points="218.69 528.83 218.69 541.16 260.63 550.87 275.2 528.83 218.69 528.83"/><polygon class="cls-21" points="241.35 455.2 218.69 467.59 218.69 476.55 254.28 493.88 259.62 479.26 241.35 455.2"/><polygon class="cls-21" points="196.03 399.25 218.69 431.74 220.24 399.25 196.03 399.25"/><polygon class="cls-21" points="170.88 344.11 170.88 373.86 154.58 373.86 154.58 353.7 168.02 344.36 170.88 344.11"/><polygon class="cls-21" points="156.82 373.86 142.63 398.51 134.83 398.51 134.83 369.01 157.94 369.01 156.82 373.86"/><polygon class="cls-21" points="134.83 404.86 151.97 431 134.83 431 134.83 404.86"/><rect class="cls-21" x="160.93" y="431.74" width="13.07" height="40.33"/><polygon class="cls-21" points="142.63 484.39 161.91 518.9 153.83 531.78 134.83 531.78 134.83 485.14 142.63 484.39"/><polygon class="cls-21" points="183.31 484.8 197.15 523.61 218.69 516.88 218.69 468.71 183.31 484.8"/><polygon class="cls-21" points="202 603.89 209.47 560.95 187.81 560.95 181.84 529.58 161.91 518.9 151.71 535.16 166.53 562.82 180.35 562.82 167.28 571.78 189.47 630.79 216.93 615.92 218.69 603.89 202 603.89"/><polygon class="cls-21" points="167.65 607.63 136.66 610.99 134.83 615.47 177.73 634.51 167.65 607.63"/><polygon class="cls-21" points="195.28 533.31 205.37 560.95 220.3 537.8 195.28 533.31"/><polygon class="cls-22" points="355.57 560.33 326.22 548.79 140.86 659.94 547.53 659.94 355.57 560.33"/><path class="cls-23" d="M244.4,573.64l-2.27,10.06-3.32,18.47,9.2,13.91s9.27-5.34,9.6-11.6,6.27-18.14,6.27-18.14Z" transform="translate(47.5 20.5)"/><polygon class="cls-24" points="255.64 592.66 228.92 611.13 266.52 611.79 255.64 592.66"/><polygon class="cls-24" points="170.56 645.29 170.56 662.58 146.47 662.58 149.43 655.18 170.56 645.29"/><polygon class="cls-24" points="357.22 564.62 353.82 584.74 357.55 616.07 393.5 580.11 357.22 564.62"/><rect class="cls-24" x="415.6" y="620.36" width="56.4" height="24.08"/><rect class="cls-23" x="414.12" y="642.68" width="31.53" height="17.8"/><rect class="cls-23" x="390.1" y="601.71" width="28.97" height="38.82"/><rect class="cls-23" x="355.36" y="616.73" width="24.88" height="30.46"/><polygon class="cls-23" points="286.72 575.33 254.26 594.21 262.27 610.51 288.01 609.87 294.44 591.63 286.72 575.33"/><rect class="cls-23" x="193.63" y="642.25" width="44.83" height="18.02"/><polygon class="cls-11" points="289.63 604.2 296.76 636.65 261.34 634.81 243.56 610.69 289.63 604.2"/><polygon class="cls-11" points="392.8 588.3 392.8 618.15 353.82 618.15 353.82 612.64 379.17 604.2 379.17 586.68 392.8 588.3"/><polygon class="cls-11" points="395.07 638.92 419.08 664.87 419.08 638.92 395.07 638.92"/><rect class="cls-11" x="462.55" y="645.08" width="6.81" height="16.52"/><polygon class="cls-11" points="542.36 661.6 498.56 661.6 498.56 636.65 540.09 654.81 542.36 661.6"/><polygon class="cls-11" points="166.02 648.33 166.02 662.92 198.46 662.92 198.56 626.61 166.02 648.33"/><polygon class="cls-11" points="281.52 578.35 291.9 594.14 300.66 598.69 319.57 583.76 319.57 558.23 281.52 578.35"/><rect class="cls-25" x="134.83" y="661.6" width="420.12" height="133.24"/><polygon class="cls-26" points="141.79 661.6 134.83 665.99 170.23 701 179.72 661.6 141.79 661.6"/><polygon class="cls-24" points="186.28 661.6 185.19 671.82 193.94 692.98 207.07 702.46 218.38 697.35 220.2 661.6 186.28 661.6"/><polygon class="cls-27" points="268.24 662.38 228.23 663.07 227.5 664.89 243.54 684.59 255.94 685.32 268.71 667.45 268.24 662.38"/><polygon class="cls-27" points="187.74 661.6 174.61 661.6 172.06 688.6 183 696.26 199.78 693.71 187.74 661.6"/><polygon class="cls-24" points="285.85 661.6 273.45 663.43 307.74 684.59 310.68 678.95 285.85 661.6"/><path class="cls-24" d="M223,646.94l-1.09,8s17.89,4.28,23,25.48l2,2,9-11.75Z" transform="translate(47.5 20.5)"/><path class="cls-24" d="M197.14,706.76l-17,41.81-13.49-17.85s7.69-16.84,14.07-24.32S197.14,706.76,197.14,706.76Z" transform="translate(47.5 20.5)"/><polygon class="cls-24" points="217.65 774.31 204.88 777.59 207.8 795.83 218.01 794.37 217.65 774.31"/><polygon class="cls-28" points="134.83 764.46 135.59 797.28 175.71 797.28 134.83 764.46"/><path class="cls-28" d="M110.34,686,89.18,672.84l-1.85,55.8c10.18-11.67,19-8.75,19-8.75L116,697.35Z" transform="translate(47.5 20.5)"/><path class="cls-28" d="M153.64,714.5c-15.78-3.57-39.66,3.93-39.66,3.93l14.59,48.14c19.33-8.39,55.07-5.47,55.07-5.47l3.64-2.59Z" transform="translate(47.5 20.5)"/><path class="cls-29" d="M122.73,680.5l-7.29,18.24L89.18,681.59V652S100.85,663.36,122.73,680.5Z" transform="translate(47.5 20.5)"/><polygon class="cls-27" points="273.09 722.52 226.4 711.21 243.18 727.99 240.26 781.6 247.56 796.55 283.66 721.42 273.09 722.52"/><polygon class="cls-11" points="244.64 727.26 243.91 769.2 267.25 762.39 271.63 751.33 244.64 727.26"/><polygon class="cls-30" points="256.31 700.27 273.08 722.52 288.04 726.53 294.97 701 256.31 700.27"/><polygon class="cls-31" points="548.81 741.12 531.3 765.55 538.96 765.92 552.09 744.03 548.81 741.12"/><rect class="cls-11" x="443.64" y="663.24" width="5.28" height="23.75"/><polygon class="cls-32" points="536.84 680.54 503 715.02 525.56 714.14 536.32 717.33 551.03 724.39 555.12 691.61 536.84 680.54"/><polygon class="cls-32" points="552.15 717 543.57 717.99 522.42 730.72 517.85 746.02 554.46 746.02 555.12 744.05 552.15 717"/><polygon class="cls-31" points="498.72 747.01 494.1 760.21 517.19 791.54 553.47 768.78 498.72 747.01"/><polygon class="cls-33" points="495.75 661.6 463.43 663.24 466.06 670.83 477.28 737.45 500.37 716.67 495.75 661.6"/><polygon class="cls-24" points="427.81 698.86 422.53 697.54 409.77 694.25 402.74 710.73 406.37 733.82 444.63 740.09 456.83 740.09 427.81 698.86"/><polygon class="cls-30" points="517.18 663.24 485.19 661.6 489.49 688.25 495.75 699.52 507.62 696.55 517.52 686.33 517.18 663.24"/><polygon class="cls-30" points="466.06 670.83 412.3 687.98 446.64 732.16 448.91 741.74 429.62 750.31 454.19 783.95 483.22 765.15 466.06 670.83"/><polygon class="cls-34" points="553.47 768.78 504.32 793.85 553.8 793.85 553.47 768.78"/><polygon class="cls-35" points="433.99 778.91 417.91 797.15 479.26 797.15 433.99 778.91"/><polygon class="cls-27" points="511.91 686.99 488.82 684.02 494.55 720.46 513.56 703.15 511.91 686.99"/><polygon class="cls-11" points="410 690.61 407.36 733.16 399.77 736.79 374.99 713.05 373.71 698.53 380.31 695.23 410 690.61"/><polygon class="cls-11" points="405.61 730.88 416.59 744.71 422.46 744.84 448.58 764.82 481.31 733.24 405.61 730.88"/><polygon class="cls-11" points="505.97 663.24 511.35 704.24 555.45 663.24 505.97 663.24"/><polygon class="cls-36" points="364.96 692.14 315.42 669.4 273.73 753.55 290.37 790.16 319.74 797.33 385.61 797.33 391.24 746.97 364.96 692.14"/><polygon class="cls-6" points="396.35 761.66 364.53 796.52 412.56 796.11 396.35 761.66"/><polygon class="cls-6" points="390.47 745.24 373.85 746.45 371.83 773.82 397.23 760.46 390.47 745.24"/><polygon class="cls-6" points="285.68 760.65 277.63 750.08 274.25 748.67 247.73 796.45 266.17 796.45 286.58 779.44 285.68 760.65"/><polygon class="cls-37" points="318.8 790.54 306.09 779.62 298.57 778.73 269.75 795.73 319.91 796.23 318.8 790.54"/><polygon class="cls-37" points="321.93 731.96 315.4 721.8 308.77 721.26 282.78 734.86 278.16 744.71 304.83 746.32 316.29 752.59 322.02 750.8 327.21 743.28 321.93 731.96"/><polygon class="cls-37" points="367.31 696.2 334.55 683.13 323.99 719.29 349.05 722.51 370.58 703.16 367.31 696.2"/><polygon class="cls-38" points="304.83 746.32 303.04 774.43 325.06 768.7 333.83 744.53 304.83 746.32"/><polygon class="cls-38" points="372.5 702.49 323.99 719.29 319.69 745.78 368.38 751.69 368.02 746.5 372.5 702.49"/><polygon class="cls-38" points="396.49 759.93 353.62 774.51 363.37 796.45 367.13 796.45 399.53 762.08 396.49 759.93"/><polygon class="cls-39" points="352.63 662.9 320.23 661.6 310.32 677.64 372.32 702.1 352.63 662.9"/><polygon class="cls-40" points="301.25 695.5 280.85 738.99 315.39 721.8 301.25 695.5"/><polygon class="cls-40" points="375.9 746.5 332.04 745.25 330.25 749.37 328.46 764.4 342.72 777.86 377.15 767.27 375.9 746.5"/><path class="cls-6" d="M502.41,281.24l-96.24,90.88-55.54-19.62-38.87-27.59L305,282.59,430,158S492.89,204,502.41,281.24Z" transform="translate(47.5 20.5)"/><path class="cls-7" d="M459,275.28,448.41,264.9l9.15-37.67-4-5.92-4.73-9.94-12.55-4.26.79-12.2,3.94-3.43s-5-2.37-7.81-4-25-7.69-25-7.69l-32.32,34.68,32.93.32L410.45,236l-10.52,17.36-22.39,5.13-17.28,14.09-11.6,13.14,3,9.59-7.5,12.9,4.5,3.79,35.51-31.25Z" transform="translate(47.5 20.5)"/><polygon class="cls-38" points="375.78 315.79 397.83 339.36 399.16 315.79 375.78 315.79"/><polygon points="524.66 236.47 503.22 261.13 528.94 280.13 538.53 264.87 524.66 236.47"/><polygon class="cls-38" points="505.56 208.6 476.91 180.75 457.04 203.55 469.9 209.98 482.9 215.82 482.47 220.8 505.56 208.6"/><polygon class="cls-8" points="460.54 230.15 455.56 222.77 427.51 230.15 414.65 237.75 415.53 245.93 457.04 239.21 462.88 241.84 460.54 230.15"/><polygon class="cls-8" points="489.77 236.91 457.04 239.21 445.64 274.29 495.33 262.01 497.96 239.8 489.77 236.91"/><polygon points="430.44 277.79 426.35 280.13 435.7 298.25 508.19 292.99 430.44 277.79"/><polygon class="cls-41" points="478.08 297.96 443.59 299.13 431.02 311.99 460.84 314.33 450.02 342.69 477.5 351.75 487.44 311.12 478.08 297.96"/><polygon class="cls-41" points="526.25 239.21 495.91 285.39 488.61 236.88 525.46 237.83 526.25 239.21"/><polygon class="cls-41" points="415.93 238.12 396.75 256.68 408.81 296.5 436.28 296.5 415.93 238.12"/><polygon class="cls-8" points="512.58 237.5 503.22 261.13 493.29 268.01 493.89 271.99 503.88 273.27 506.55 269.2 505.26 263.76 512.28 254.7 516.38 237.6 512.58 237.5"/><polygon class="cls-8" points="425.51 265.59 403.45 278.79 406.61 289.24 436.28 296.5 425.51 265.59"/><polygon class="cls-8" points="487.44 311.12 474.57 315.5 459.36 318.19 460.84 314.33 448.27 314.62 450.9 306.73 435.43 312.34 431.02 311.99 443.59 299.13 478.08 297.96 487.44 311.12"/><polygon class="cls-38" points="483.55 327.02 477.2 318.71 462 324.56 464.05 337.42 469.31 332.16 480.71 338.6 483.55 327.02"/><path class="cls-38" d="M365.69,222.8s.29,15.49-2.34,26c10.7-15.06,6-28.41,6-28.41Z" transform="translate(47.5 20.5)"/><polygon class="cls-38" points="397.31 258.53 403.45 278.79 407.06 250.03 397.31 258.53"/><polygon points="505.56 213.2 475.45 238.33 457.04 239.21 454.12 223.14 506.59 209.8 505.56 213.2"/><polygon class="cls-38" points="537.42 261.43 507.02 297.67 549.01 297.4 537.42 261.43"/><polygon class="cls-8" points="415.24 355.55 438.37 378.03 455.28 359.64 415.24 355.55"/><polygon class="cls-6" points="330.25 749.37 301.25 774.25 320.41 796.82 351.02 796.82 330.25 749.37"/><polygon class="cls-40" points="285.68 760.65 257.75 796.82 278.52 796.82 306.89 780.88 285.68 760.65"/><polygon class="cls-27" points="374.67 707.27 407.68 774.39 422.86 744.05 374.67 707.27"/><polygon class="cls-27" points="470.02 699.85 450.89 686.66 450.89 733.49 478.27 733.49 470.02 699.85"/><polygon class="cls-27" points="394.82 661.6 378.66 663.24 368.76 694.9 372.29 702.03 400.43 692.26 394.82 661.6"/><polygon class="cls-34" points="553.79 711.72 525.76 713.04 521.14 737.45 555.12 722.61 553.79 711.72"/><polygon class="cls-11" points="172.06 688.6 170.23 701 179.03 710.06 218.38 711.94 218.38 692.97 172.06 688.6"/><polygon class="cls-11" points="263.6 663.07 243.54 684.59 256.31 700.59 273.45 700.59 273.45 661.6 263.6 663.07"/><path class="cls-29" d="M162.86,741.41l-34.28,25.17-11.31-35.74A121.69,121.69,0,0,1,162.86,741.41Z" transform="translate(47.5 20.5)"/><polygon class="cls-15" points="304.22 188.54 271.16 204.91 300.75 234.19 330.66 214.04 304.22 188.54"/><polygon class="cls-15" points="254.79 190.75 252.27 232.61 206.56 191.53 254.79 190.75"/><path class="cls-15" d="M323.77,141l-14.48,51.31-19.74-5-1.67-31.48S315.9,141.91,323.77,141Z" transform="translate(47.5 20.5)"/><polygon class="cls-15" points="421.01 208.69 394.25 207.43 389.21 234.19 409.99 244.26 430.14 222.85 421.01 208.69"/><polygon class="cls-15" points="282.81 127.78 285.64 172.17 290.68 175.32 335.38 172.17 335.7 158.32 282.81 127.78"/><line class="cls-42" x1="554.47" y1="661.6" x2="134.83" y2="661.6"/><path class="cls-42" d="M291.87,71.9C236.13,92,191,127.26,155.55,167.8L279.42,282h10.14" transform="translate(47.5 20.5)"/><path class="cls-42" d="M291.38,71.67S353.07,81.46,430,158L301.94,282H289.55" transform="translate(47.5 20.5)"/><path class="cls-42" d="M460.29,190.69C450,178.62,439.84,167.77,430,158L301.94,282H279.42L155.55,167.8c-33.32,38.16-55.88,81-64.41,120.09a157,157,0,0,0-3.81,33.3V776.32H507V333.4C507,281.41,496.89,240,460.29,190.69Z" transform="translate(47.5 20.5)"/><line class="cls-42" x1="223.86" y1="420.16" x2="134.83" y2="562.07"/><line class="cls-42" x1="177.61" y1="493.88" x2="277.36" y2="493.88"/><line class="cls-42" x1="455.19" y1="419.05" x2="554.46" y2="559.82"/><line class="cls-42" x1="453.63" y1="428.4" x2="453.63" y2="610.93"/><line class="cls-42" x1="501.46" y1="488.3" x2="405.21" y2="488.3"/><line class="cls-42" x1="138.38" y1="661.6" x2="318.51" y2="556.84"/><line class="cls-42" x1="220.24" y1="395.28" x2="138.25" y2="310.28"/><polygon class="cls-42" points="353.95 661.6 318.47 661.6 249.69 796.94 415.33 796.91 353.95 661.6"/><path class="cls-42" d="M87.33,647.53s34.61,29,64.1,64.31,47,63.25,47,63.25" transform="translate(47.5 20.5)"/><line class="cls-42" x1="552.81" y1="664.23" x2="415.33" y2="796.91"/><line class="cls-42" x1="552.48" y1="661.6" x2="353.82" y2="559.77"/><line class="cls-42" x1="218.69" y1="428.4" x2="218.69" y2="612.64"/><polygon class="cls-43" points="360.83 304.06 320.93 304.06 220.24 395.28 220.24 427.39 320.93 560.02 357.12 559.74 453.67 428.91 453.67 392.63 360.83 304.06"/><polygon class="cls-44" points="356.29 497.9 355.41 513.56 383.02 524.65 394.4 507.95 356.29 497.9"/><polygon class="cls-45" points="304.44 319 288.67 333.29 311.98 335.42 304.44 319"/><polygon class="cls-45" points="374.31 335.42 356.49 330.74 353.82 346.94 378.45 356.1 396.32 337.91 374.31 335.42"/><polygon class="cls-45" points="415.2 355.93 407.7 395.28 421.58 395.28 433.23 373.09 415.2 355.93"/><path class="cls-45" d="M257.27,343.35,237.6,374.78h33.68l2.15-4.32C273.43,369.57,257.27,343.35,257.27,343.35Z" transform="translate(47.5 20.5)"/><polygon class="cls-45" points="284.21 422.57 278.09 428.59 302.53 457.13 318.99 461.91 322.91 424.64 284.21 422.57"/><polygon class="cls-45" points="296.32 523.6 302.6 535.88 306.96 537.78 318.18 536.6 319.59 488.23 296.32 523.6"/><polygon class="cls-45" points="413.61 451.22 394.05 446.22 392.17 448.1 392.17 511.97 419.22 472.49 413.61 451.22"/><polygon class="cls-44" points="374.54 375.15 396.45 397.33 408.74 392.25 412.75 371.68 374.54 375.15"/><polygon class="cls-44" points="421.3 435.8 394.05 446.22 418.71 476.28 441.56 445.32 421.3 435.8"/><polygon class="cls-44" points="318.43 453.97 279.42 428.32 275.41 429.12 277.81 448.09 320.93 489.51 318.43 453.97"/><polygon class="cls-44" points="223.04 428.32 241.36 455.2 263.92 427.11 223.04 428.32"/><polygon class="cls-44" points="247.09 373.01 222.21 393.5 266.59 395.28 266.59 384.24 247.09 373.01"/><polygon class="cls-44" points="298.12 351.1 317.36 387.98 320.93 391.45 320.93 358.58 298.12 351.1"/><polygon class="cls-44" points="376.31 318.83 372.94 318.77 356.64 326.25 355.57 330.53 394.05 339.34 376.31 318.83"/><polygon class="cls-42" points="360.83 304.06 320.93 304.06 220.24 395.28 220.24 427.39 320.93 560.02 357.12 559.74 453.67 428.91 453.67 392.63 360.83 304.06"/><polygon class="cls-46" points="453.67 395.28 353.82 395.28 353.82 304.06 320.93 304.06 320.93 395.28 220.24 395.28 220.24 427.11 320.93 427.11 320.93 659.48 353.82 659.48 353.82 427.11 453.67 427.11 453.67 395.28"/><polygon class="cls-47" points="453.67 395.28 353.82 395.28 353.82 304.06 320.93 304.06 320.93 395.28 220.24 395.28 220.24 427.11 320.93 427.11 320.93 659.48 353.82 659.48 353.82 427.11 453.67 427.11 453.67 395.28"/><polygon class="cls-10" points="208.65 302.62 194.67 302.62 187.04 328.04 213.09 340.11 227.39 311.52 208.65 302.62"/><polygon class="cls-10" points="215.95 234 224.85 268.63 202.93 277.52 188.95 242.26 215.95 234"/><line class="cls-42" x1="325.61" y1="301.25" x2="140.83" y2="301.25"/><polyline class="cls-42" points="349.44 302.46 550.11 302.46 453.67 392.63"/><line class="cls-42" x1="339.03" y1="302.46" x2="339.03" y2="96.27"/></g></svg>