<svg xmlns="http://www.w3.org/2000/svg" viewBox="0 0 2248.78 875.96"><defs><style>.cls-1{fill:#0d113b;stroke:#231f20;stroke-miterlimit:10;}.cls-2{font-size:172px;fill:#fdfefe;font-family:Droidiga, Droidiga;}.cls-3{letter-spacing:-0.06em;}.cls-4{letter-spacing:-0.11em;}.cls-5{letter-spacing:-0.11em;}.cls-6{letter-spacing:-0.1em;}.cls-7{letter-spacing:-0.06em;}.cls-8{letter-spacing:-0.04em;}.cls-9{letter-spacing:-0.21em;}.cls-10{letter-spacing:-0.04em;}.cls-11{letter-spacing:-0.05em;}.cls-12{letter-spacing:-0.07em;}.cls-13{fill:#3c2415;}.cls-14,.cls-52,.cls-57{fill:none;}.cls-14,.cls-15,.cls-52,.cls-57{stroke:#000;}.cls-14,.cls-15{stroke-linecap:square;stroke-width:9px;}.cls-15,.cls-16{fill:#0c0e17;}.cls-17{fill:#0a0b13;}.cls-18{fill:#18194b;}.cls-19{fill:#535370;}.cls-20{fill:#4c60ac;}.cls-21{fill:#81bc6e;}.cls-22{fill:#394d74;}.cls-23{fill:#dfeece;}.cls-24{fill:#2c607f;}.cls-25{fill:#427f8c;}.cls-26{fill:#77c7ac;}.cls-27{fill:#072121;}.cls-28{fill:#42385a;}.cls-29{fill:#b2519b;}.cls-30{fill:#ea1a42;}.cls-31{fill:#481214;}.cls-32{fill:#87906b;}.cls-33{fill:#486249;}.cls-34{fill:#edefa4;}.cls-35{fill:#6e7f4e;}.cls-36{fill:#a6ab77;}.cls-37{fill:#1d3d1e;}.cls-38{fill:#060a08;}.cls-39{fill:#566e66;}.cls-40{fill:#516232;}.cls-41{fill:#0b1812;}.cls-42{fill:#090f0c;}.cls-43{fill:#99a371;}.cls-44{fill:#1e3538;}.cls-45{fill:#0c1a12;}.cls-46{fill:#5f8493;}.cls-47{fill:#4b61ac;}.cls-48{fill:#272a6a;}.cls-49{fill:#0c0d17;}.cls-50{fill:#020202;}.cls-51{fill:#5d75b8;}.cls-52{stroke-linecap:round;stroke-linejoin:round;}.cls-52,.cls-57{stroke-width:7.09px;}.cls-53{fill:#f8e743;}.cls-54{fill:#d68028;}.cls-55{fill:#f7f4b2;}.cls-56{fill:#fff;}</style></defs><title>lOGO</title><g id="Layer_2" data-name="Layer 2"><rect class="cls-1" x="0.5" y="0.5" width="2239" height="841.89"/><text class="cls-2" transform="translate(618.88 390)"><tspan class="cls-3">A</tspan><tspan x="114.72" y="0">R</tspan><tspan class="cls-4" x="224.63" y="0">M</tspan><tspan x="379.25" y="0">A</tspan><tspan class="cls-5" x="503.61" y="0">D</tspan><tspan x="598.9" y="0">A</tspan><tspan class="cls-5" x="723.25" y="0">L</tspan><tspan x="812.69" y="0">E</tspan><tspan class="cls-6" x="0" y="206.4">C</tspan><tspan x="110.25" y="206.4">O</tspan><tspan class="cls-7" x="258.86" y="206.4">N</tspan><tspan x="376.51" y="206.4">G</tspan><tspan class="cls-8" x="511.18" y="206.4">R</tspan><tspan x="614.38" y="206.4">EG</tspan><tspan class="cls-9" x="853.63" y="206.4">A</tspan><tspan class="cls-10" x="942.21" y="206.4">T</tspan><tspan x="1043.52" y="206.4">IONAL</tspan><tspan class="cls-11" x="0" y="412.8">C</tspan><tspan x="117.82" y="412.8">HU</tspan><tspan class="cls-12" x="360.16" y="412.8">R</tspan><tspan class="cls-11" x="458.03" y="412.8">C</tspan><tspan x="575.85" y="412.8">H</tspan></text></g><g id="Layer_1" data-name="Layer 1"><path class="cls-13" d="M294.67,17.91C174.33,35,30.3,190.19,30.3,294.48V824H565V294.48C565,190.19,415,35,294.67,17.91Z" transform="translate(0.5 0.5)"/><path class="cls-14" d="M294.67,17.91C174.33,35,30.3,190.19,30.3,294.48V824H565V294.48C565,190.19,415,35,294.67,17.91Z" transform="translate(0.5 0.5)"/><polygon class="cls-15" points="271.3 284.27 173.24 375.5 115.95 315.94 134.49 290.92 151.42 284.27 271.3 284.27"/><polygon points="164.44 307.36 144.65 307.03 136.4 337.3 153.56 340.01 174 330.45 164.44 307.36"/><polygon points="133.41 279.99 111.18 308.17 142.69 341.05 152.24 279 133.41 279.99"/><polygon points="218.86 303.4 166.41 324.45 179.94 337.05 198.81 348.28 216.88 339.03 236.57 315.86 218.86 303.4"/><path class="cls-16" d="M159.87,176.86S149,180.06,125.06,208.8s-31.77,70.46-31.77,70.46l38,4.52L238.66,275l6.35-21.6Z" transform="translate(0.5 0.5)"/><path class="cls-17" d="M205.62,249l-9.85,31.13,41.62.86,1.34-38.43C237,243.05,205.62,249,205.62,249Z" transform="translate(0.5 0.5)"/><polygon class="cls-17" points="172.13 241.85 177.53 278.07 198.5 281.47 209.62 243.44 172.13 241.85"/><polygon points="158.15 252.02 144.81 255.83 131.15 272.99 131.78 281.88 165.46 279.98 158.15 252.02"/><polygon class="cls-18" points="175.26 238.77 154.4 253.09 161.96 279.98 186.11 279.98 175.26 238.77"/><polygon class="cls-18" points="153.07 189.44 159.42 224.7 141.95 222.48 115.86 225.78 139.69 188.77 153.07 189.44"/><path d="M139.26,188.17l56.2,18.56L161,173.07s-5.16-5.68-10.11.36Z" transform="translate(0.5 0.5)"/><polygon class="cls-19" points="143.11 222.12 131.15 272.99 157.45 257.12 161.01 249.16 143.11 222.12"/><path class="cls-20" d="M95.07,283.77c-3.49,2.81-2.22,10.32-2.22,10.32l23.3,19L141.45,281Z" transform="translate(0.5 0.5)"/><polygon class="cls-20" points="179.12 328.26 166.41 324.45 136.4 337.3 144.04 345.22 198.81 348.28 179.12 328.26"/><polygon class="cls-20" points="232.49 284.27 243.61 307.62 232.49 320.64 212.16 306.98 213.11 284.27 232.49 284.27"/><polygon class="cls-20" points="241.72 247.47 230.27 279.02 272.52 279.02 241.72 247.47"/><polygon class="cls-20" points="206.76 219.3 193.41 279.34 204.53 279.98 221.6 228.92 206.76 219.3"/><polygon class="cls-20" points="120.35 235.5 114.94 231.69 108 241.28 120.98 281.88 137.82 281.88 120.35 235.5"/><path class="cls-21" d="M294.23,72.07C238.49,92.16,191,127.47,155.55,168L279.42,282.17h10.14V169C289.55,80,294.23,72.07,294.23,72.07Z" transform="translate(0.5 0.5)"/><path class="cls-21" d="M430,158.22c-77-76.55-134.8-86.15-134.8-86.15S289.55,80,289.55,169v113.2h12.39Z" transform="translate(0.5 0.5)"/><polygon class="cls-22" points="367.24 219.97 321.44 204.13 290.05 232.03 328.03 241.73 348.36 240.62 367.24 219.97"/><polygon class="cls-22" points="362.21 103.06 337.27 109.47 352.77 136.84 386.61 120.19 362.21 103.06"/><polygon class="cls-22" points="368.27 166.53 359.04 153.66 331.33 158.61 306.92 173.78 307.25 185.33 347.03 188.81 364.97 193.9 376.52 189.28 368.27 166.53"/><path class="cls-23" d="M339.2,91.44,292,119.78s-.53-36.23.84-40.94,2.07-7.23,10-4.61S339.2,91.44,339.2,91.44Z" transform="translate(0.5 0.5)"/><polygon class="cls-23" points="425 153.31 382.83 170.33 386.6 192.68 388.38 199.5 430.53 158.72 425 153.31"/><polygon class="cls-23" points="307.59 232.03 300.35 230.46 290.59 232.35 292.79 252.81 324.23 258.4 349.98 237.64 307.59 232.03"/><polygon class="cls-23" points="288.38 188.59 227.63 235.5 231.4 241.48 290.05 232.03 288.38 188.59"/><polygon class="cls-23" points="361.73 141.68 345.36 133.8 318.87 143.11 312.94 157.11 315.14 174.03 357.69 159.18 363.31 151.13 361.73 141.68"/><polygon class="cls-24" points="293.11 236.44 288.7 266.23 319.43 266.23 326.14 259.74 293.11 236.44"/><polygon class="cls-23" points="289.96 89.42 261.31 128.46 290.21 143.09 289.96 89.42"/><path class="cls-23" d="M226.18,139.92l30.54,28.33-2.52,12.91-30.54,3.46-11.33-9.76S218.63,148.74,226.18,139.92Z" transform="translate(0.5 0.5)"/><polygon class="cls-25" points="380.62 119.33 378.1 136.01 404.55 137.28 380.62 119.33"/><polygon class="cls-26" points="281.14 167.81 264.14 185.44 273.59 193.31 282.36 195.13 290.05 201.18 292.48 184.18 281.14 167.81"/><polygon class="cls-27" points="232.98 237.07 261 263.83 290.05 244.31 290.05 230.14 232.98 237.07"/><polygon class="cls-27" points="289.9 74.36 233.34 102.53 236.01 111.11 261 132.24 292.23 89.58 289.9 74.36"/><polygon class="cls-27" points="337.98 89.06 290.51 117.74 290.51 126.55 364.56 106.74 337.98 89.06"/><polygon class="cls-27" points="380.62 119.33 343.79 134.44 377.04 193.61 386.6 192.68 380.62 119.33"/><polygon class="cls-27" points="309.79 193 300.66 181.03 290.05 180.72 290.05 232.03 307.58 232.03 326.47 204.33 309.79 193"/><path class="cls-28" d="M502.86,283.77l-96.69,88.57Z" transform="translate(0.5 0.5)"/><path class="cls-29" d="M500.72,285.73,403.06,375l-84.44,52.58L180.1,383.38s-84.34-98.56-90-90.18L87.33,641.32,302.8,526.53l3.52,24.41,200.31,91V322.69C506.63,289.7,500.72,285.73,500.72,285.73Z" transform="translate(0.5 0.5)"/><polygon class="cls-30" points="121.02 379.84 171.81 379.84 171.69 411.96 116.92 411.96 121.02 379.84"/><path class="cls-30" d="M160.11,471.58v-35.1L155.62,438l-9.74,10.48-25.73,5.21v10.45h-25l-6,7.47v60.5s3.09,1.88,4.07.31,18.7-33.17,18.7-33.17l28.75-31,3,9.33,6,25.77.3,10.1-24.27-8.76-1.43,32.27L89.9,551.49v17.92l20.17-8.59,7.83,26.76L87.33,590.7v31l26.85,5.6,26.14-13.44s5.23-12.32,4.11-11.95S154.5,547,154.5,547l4.85-17.18,11.83-7.12v-31Z" transform="translate(0.5 0.5)"/><polygon class="cls-30" points="235.29 492.24 212.51 539.67 235.29 539.67 231.18 563.57 188.6 583.34 174.8 562.07 174.8 540.04 191.97 540.04 190.48 527.72 207.28 474.1 219.61 474.1 235.29 492.24"/><polygon class="cls-30" points="481.38 498.22 467.88 492.17 463.46 505.31 447.4 499.71 429.1 465.05 456.05 465.05 476.9 436.6 497.06 436.23 497.06 477.09 463.07 477.09 473.56 492.62 506.03 492.62 506.03 401.5 479.51 401.5 467.56 414.94 461.96 403.74 475.03 400.01 475.03 368.64 497.81 368.64 478.26 342.25 440.07 342.25 423.5 357.06 417.9 367.52 447.4 367.52 447.4 404.11 411.61 404.11 429.03 428.81 389.89 436.98 367.86 463.49 390.26 502.7 372.71 512.41 358.89 518.01 350.4 528.06 352.17 540.04 346.57 540.41 328.34 515.26 310.12 539.96 410.26 593.01 437.32 537.8 446.28 534.07 452.86 589.91 453.75 600.91 463.14 591.38 479 538.58 506.58 538.79 481.38 498.22"/><rect class="cls-30" x="89.66" y="411.21" width="24.27" height="41.08"/><polygon class="cls-30" points="91.25 290.49 88.46 308.81 111.69 333.91 107.58 336.52 87.83 336.52 87.83 378.35 121.02 378.35 123.88 324.32 91.25 290.49"/><polygon class="cls-31" points="351.8 484.4 337.61 501.95 347.69 529.96 372.71 512.41 351.8 484.4"/><polygon class="cls-31" points="461.96 403.74 447.4 403.74 447.4 437.72 437.32 437.72 458.6 468.77 491.09 438.47 461.96 403.74"/><rect class="cls-31" x="467.56" y="367.89" width="28.75" height="32.11"/><rect class="cls-31" x="499.68" y="400.38" width="8.22" height="35.48"/><polygon class="cls-31" points="503.79 342.87 475.78 342.87 506.77 372.75 507.52 342.87 503.79 342.87"/><rect class="cls-31" x="444.04" y="336.9" width="27.26" height="6.72"/><rect class="cls-31" x="481.38" y="322.71" width="26.89" height="14.19"/><polygon class="cls-31" points="420.05 360.59 406.67 372.84 406.67 404.11 437.69 404.11 420.05 360.59"/><polygon class="cls-31" points="468.31 489.63 460.1 537.8 428.35 537.8 468.31 489.63"/><polygon class="cls-31" points="454.12 491.5 406.63 509.42 408.94 525.11 438.91 525.07 456.73 518.01 458.75 501.15 454.12 491.5"/><polygon class="cls-31" points="368.6 472.08 397.36 531.08 407.81 529.21 407.81 468.51 368.6 472.08"/><polygon class="cls-31" points="381.67 541.91 370.1 541.53 359.27 563.94 406.63 591.14 381.67 541.91"/><polygon class="cls-31" points="415.47 595.68 457.53 617.24 463.83 588.21 415.47 595.68"/><polygon class="cls-31" points="477.65 537.43 464.58 582.61 492.21 597.55 506.4 581.87 507.89 563.19 477.65 537.43"/><polygon class="cls-31" points="206.54 539.29 191.97 539.29 194.7 579.69 222.32 563.12 206.54 539.29"/><polygon class="cls-31" points="247.62 507.55 227.08 539.29 227.08 563.94 268.51 538.79 247.62 507.55"/><polygon class="cls-31" points="171.69 509.05 171.69 521.37 213.63 531.08 228.2 509.05 171.69 509.05"/><polygon class="cls-31" points="194.35 435.41 171.69 447.8 171.69 456.77 207.28 474.1 212.62 459.48 194.35 435.41"/><polygon class="cls-31" points="149.03 379.47 171.69 411.96 173.24 379.47 149.03 379.47"/><polygon class="cls-31" points="123.88 324.32 123.88 354.07 107.58 354.07 107.58 333.91 121.02 324.57 123.88 324.32"/><polygon class="cls-31" points="109.82 354.07 95.63 378.72 87.83 378.72 87.83 349.22 110.94 349.22 109.82 354.07"/><polygon class="cls-31" points="87.83 385.07 104.97 411.21 87.83 411.21 87.83 385.07"/><rect class="cls-31" x="113.93" y="411.96" width="13.07" height="40.33"/><polygon class="cls-31" points="95.63 464.61 114.91 499.11 106.83 511.99 87.83 511.99 87.83 465.36 95.63 464.61"/><polygon class="cls-31" points="136.31 465.01 150.15 503.82 171.69 497.1 171.69 448.93 136.31 465.01"/><polygon class="cls-31" points="155 584.11 162.47 541.16 140.81 541.16 134.84 509.79 114.91 499.11 104.71 515.38 119.53 543.03 133.35 543.03 120.28 551.99 142.47 611.01 169.93 596.13 171.69 584.11 155 584.11"/><polygon class="cls-31" points="120.65 587.84 89.66 591.2 87.83 595.68 130.73 614.73 120.65 587.84"/><polygon class="cls-31" points="148.28 513.53 158.37 541.16 173.3 518.01 148.28 513.53"/><polygon class="cls-32" points="308.57 540.55 279.22 529 93.86 640.15 500.53 640.15 308.57 540.55"/><path class="cls-33" d="M244.4,573.86l-2.27,10.06-3.32,18.47L248,616.3s9.27-5.34,9.6-11.6,6.27-18.14,6.27-18.14Z" transform="translate(0.5 0.5)"/><polygon class="cls-34" points="208.64 572.87 181.92 591.34 219.52 592 208.64 572.87"/><polygon class="cls-34" points="123.56 625.51 123.56 642.79 99.47 642.79 102.43 635.39 123.56 625.51"/><polygon class="cls-34" points="310.22 544.84 306.82 564.96 310.55 596.29 346.5 560.32 310.22 544.84"/><rect class="cls-34" x="368.6" y="600.58" width="56.4" height="24.08"/><rect class="cls-33" x="367.12" y="622.9" width="31.53" height="17.8"/><rect class="cls-33" x="343.1" y="581.93" width="28.97" height="38.82"/><rect class="cls-33" x="308.36" y="596.94" width="24.88" height="30.46"/><polygon class="cls-33" points="239.72 555.54 207.26 574.42 215.27 590.72 241.01 590.08 247.44 571.85 239.72 555.54"/><rect class="cls-33" x="146.63" y="622.46" width="44.83" height="18.02"/><polygon class="cls-21" points="242.63 584.42 249.76 616.86 214.34 615.03 196.56 590.9 242.63 584.42"/><polygon class="cls-21" points="345.8 568.52 345.8 598.37 306.82 598.37 306.82 592.85 332.17 584.42 332.17 566.9 345.8 568.52"/><polygon class="cls-21" points="348.07 619.13 372.08 645.09 372.08 619.13 348.07 619.13"/><rect class="cls-21" x="415.55" y="625.3" width="6.81" height="16.52"/><polygon class="cls-21" points="495.36 641.82 451.56 641.82 451.56 616.86 493.09 635.03 495.36 641.82"/><polygon class="cls-21" points="119.02 628.54 119.02 643.14 151.46 643.14 151.56 606.82 119.02 628.54"/><polygon class="cls-21" points="234.52 558.57 244.9 574.36 253.66 578.9 272.57 563.98 272.57 538.44 234.52 558.57"/><rect class="cls-35" x="87.83" y="641.82" width="420.12" height="133.24"/><polygon class="cls-36" points="94.79 641.82 87.83 646.2 123.23 681.21 132.72 641.82 94.79 641.82"/><polygon class="cls-34" points="139.28 641.82 138.19 652.03 146.94 673.19 160.07 682.67 171.38 677.57 173.2 641.82 139.28 641.82"/><polygon class="cls-37" points="221.24 642.59 181.23 643.28 180.5 645.11 196.54 664.8 208.94 665.53 221.71 647.66 221.24 642.59"/><polygon class="cls-37" points="140.74 641.82 127.61 641.82 125.06 668.81 136 676.47 152.78 673.92 140.74 641.82"/><polygon class="cls-34" points="238.85 641.82 226.45 643.65 260.74 664.8 263.68 659.16 238.85 641.82"/><path class="cls-34" d="M223,647.16l-1.09,8s17.89,4.28,23,25.48l2,2,9-11.75Z" transform="translate(0.5 0.5)"/><path class="cls-34" d="M197.14,707l-17,41.81-13.49-17.85s7.69-16.84,14.07-24.32S197.14,707,197.14,707Z" transform="translate(0.5 0.5)"/><polygon class="cls-34" points="170.65 754.52 157.88 757.8 160.8 776.04 171.01 774.58 170.65 754.52"/><polygon class="cls-38" points="87.83 744.67 88.59 777.5 128.71 777.5 87.83 744.67"/><path class="cls-38" d="M110.34,686.18,89.18,673.05l-1.85,55.8c10.18-11.67,19-8.75,19-8.75L116,697.56Z" transform="translate(0.5 0.5)"/><path class="cls-38" d="M153.64,714.71c-15.78-3.57-39.66,3.93-39.66,3.93l14.59,48.14c19.33-8.39,55.07-5.47,55.07-5.47l3.64-2.59Z" transform="translate(0.5 0.5)"/><path class="cls-39" d="M122.73,680.71l-7.29,18.24L89.18,681.81V652.26S100.85,663.57,122.73,680.71Z" transform="translate(0.5 0.5)"/><polygon class="cls-37" points="226.09 702.73 179.4 691.42 196.18 708.2 193.26 761.81 200.56 776.77 236.66 701.64 226.09 702.73"/><polygon class="cls-21" points="197.64 707.47 196.91 749.41 220.25 742.6 224.63 731.54 197.64 707.47"/><polygon class="cls-40" points="209.31 680.48 226.09 702.73 241.04 706.74 247.97 681.21 209.31 680.48"/><polygon class="cls-41" points="501.81 721.33 484.3 745.76 491.96 746.13 505.09 724.25 501.81 721.33"/><rect class="cls-21" x="396.64" y="643.45" width="5.28" height="23.75"/><polygon class="cls-42" points="489.84 660.76 456 695.24 478.56 694.35 489.32 697.54 504.03 704.61 508.12 671.82 489.84 660.76"/><polygon class="cls-42" points="505.15 697.21 496.57 698.2 475.42 710.93 470.85 726.24 507.46 726.24 508.12 724.26 505.15 697.21"/><polygon class="cls-41" points="451.72 727.23 447.1 740.42 470.19 771.75 506.47 749 451.72 727.23"/><polygon class="cls-43" points="448.75 641.82 416.43 643.45 419.06 651.04 430.28 717.66 453.37 696.88 448.75 641.82"/><polygon class="cls-34" points="380.81 679.07 375.53 677.75 362.77 674.46 355.74 690.95 359.37 714.03 397.63 720.3 409.83 720.3 380.81 679.07"/><polygon class="cls-40" points="470.19 643.45 438.19 641.82 442.49 668.47 448.75 679.73 460.62 676.76 470.52 666.54 470.19 643.45"/><polygon class="cls-40" points="419.06 651.04 365.3 668.19 399.64 712.37 401.91 721.95 382.62 730.53 407.19 764.17 436.22 745.37 419.06 651.04"/><polygon class="cls-44" points="506.47 749 457.32 774.06 506.8 774.06 506.47 749"/><polygon class="cls-45" points="386.99 759.12 370.91 777.36 432.26 777.36 386.99 759.12"/><polygon class="cls-37" points="464.91 667.2 441.82 664.23 447.55 700.67 466.56 683.36 464.91 667.2"/><polygon class="cls-21" points="363 670.83 360.36 713.38 352.77 717 327.99 693.26 326.71 678.74 333.31 675.45 363 670.83"/><polygon class="cls-21" points="358.61 711.1 369.59 724.92 375.46 725.05 401.58 745.04 434.31 713.45 358.61 711.1"/><polygon class="cls-21" points="458.97 643.45 464.35 684.45 508.45 643.45 458.97 643.45"/><polygon class="cls-46" points="317.96 672.35 268.42 649.61 226.73 733.76 243.37 770.37 272.74 777.54 338.61 777.54 344.24 727.18 317.96 672.35"/><polygon class="cls-16" points="349.35 741.87 317.53 776.73 365.56 776.33 349.35 741.87"/><polygon class="cls-16" points="343.47 725.45 326.85 726.66 324.83 754.03 350.23 740.67 343.47 725.45"/><polygon class="cls-16" points="238.68 740.86 230.63 730.3 227.25 728.88 200.73 776.66 219.17 776.66 239.58 759.65 238.68 740.86"/><polygon class="cls-47" points="271.8 770.75 259.09 759.83 251.57 758.94 222.75 775.94 272.91 776.45 271.8 770.75"/><polygon class="cls-47" points="274.93 712.17 268.4 702.01 261.77 701.48 235.78 715.08 231.16 724.93 257.83 726.54 269.29 732.8 275.02 731.01 280.21 723.49 274.93 712.17"/><polygon class="cls-47" points="320.31 676.41 287.55 663.35 276.99 699.51 302.05 702.73 323.58 683.37 320.31 676.41"/><polygon class="cls-48" points="257.83 726.54 256.04 754.64 278.06 748.91 286.83 724.75 257.83 726.54"/><polygon class="cls-48" points="325.5 682.71 276.99 699.51 272.69 726 321.38 731.91 321.02 726.72 325.5 682.71"/><polygon class="cls-48" points="349.49 740.14 306.62 754.72 316.37 776.66 320.13 776.66 352.53 742.29 349.49 740.14"/><polygon class="cls-49" points="305.63 643.12 273.23 641.82 263.32 657.86 325.32 682.31 305.63 643.12"/><polygon class="cls-50" points="254.25 675.72 233.85 719.2 268.39 702.01 254.25 675.72"/><polygon class="cls-50" points="328.9 726.72 285.04 725.47 283.25 729.58 281.46 744.62 295.72 758.07 330.15 747.48 328.9 726.72"/><path class="cls-16" d="M502.41,281.46l-96.24,90.88-55.54-19.62-38.87-27.59L305,282.8,430,158.22S492.89,204.16,502.41,281.46Z" transform="translate(0.5 0.5)"/><path class="cls-17" d="M459,275.49l-10.58-10.39,9.15-37.67-4-5.92-4.73-9.94-12.55-4.26.79-12.2,3.94-3.43s-5-2.37-7.81-4-25-7.69-25-7.69l-32.32,34.68,32.93.32,1.64,21.23-10.52,17.36-22.39,5.13-17.28,14.09-11.6,13.14,3,9.59-7.5,12.9,4.5,3.79,35.51-31.25Z" transform="translate(0.5 0.5)"/><polygon class="cls-48" points="328.78 296.01 350.83 319.57 352.16 296.01 328.78 296.01"/><polygon points="477.66 216.68 456.22 241.35 481.94 260.35 491.53 245.08 477.66 216.68"/><polygon class="cls-48" points="458.56 188.81 429.91 160.97 410.04 183.76 422.9 190.2 435.9 196.04 435.47 201.01 458.56 188.81"/><polygon class="cls-18" points="413.54 210.36 408.56 202.98 380.51 210.36 367.65 217.96 368.53 226.15 410.04 219.43 415.88 222.06 413.54 210.36"/><polygon class="cls-18" points="442.77 217.12 410.04 219.43 398.64 254.5 448.33 242.22 450.96 220.01 442.77 217.12"/><polygon points="383.44 258.01 379.35 260.35 388.7 278.47 461.19 273.21 383.44 258.01"/><polygon class="cls-51" points="431.08 278.18 396.59 279.35 384.02 292.21 413.84 294.55 403.02 322.9 430.5 331.96 440.44 291.33 431.08 278.18"/><polygon class="cls-51" points="479.25 219.42 448.91 265.61 441.61 217.09 478.46 218.04 479.25 219.42"/><polygon class="cls-51" points="368.93 218.33 349.75 236.89 361.81 276.72 389.28 276.72 368.93 218.33"/><polygon class="cls-18" points="465.58 217.71 456.22 241.35 446.29 248.23 446.89 252.2 456.88 253.48 459.55 249.41 458.26 243.98 465.28 234.92 469.38 217.81 465.58 217.71"/><polygon class="cls-18" points="378.51 245.81 356.45 259 359.61 269.45 389.28 276.72 378.51 245.81"/><polygon class="cls-18" points="440.44 291.33 427.57 295.71 412.36 298.41 413.84 294.55 401.27 294.84 403.9 286.94 388.43 292.55 384.02 292.21 396.59 279.35 431.08 278.18 440.44 291.33"/><polygon class="cls-48" points="436.55 307.23 430.2 298.93 415 304.77 417.05 317.64 422.31 312.37 433.71 318.81 436.55 307.23"/><path class="cls-48" d="M365.69,223s.29,15.49-2.34,26c10.7-15.06,6-28.41,6-28.41Z" transform="translate(0.5 0.5)"/><polygon class="cls-48" points="350.31 238.75 356.45 259 360.06 230.24 350.31 238.75"/><polygon points="458.56 193.41 428.45 218.55 410.04 219.43 407.12 203.35 459.59 190.02 458.56 193.41"/><polygon class="cls-48" points="490.42 241.65 460.02 277.88 502.01 277.61 490.42 241.65"/><polygon class="cls-18" points="368.24 335.76 391.37 358.24 408.28 339.85 368.24 335.76"/><polygon class="cls-16" points="283.25 729.58 254.25 754.46 273.41 777.03 304.02 777.03 283.25 729.58"/><polygon class="cls-50" points="238.68 740.86 210.75 777.03 231.52 777.03 259.89 761.1 238.68 740.86"/><polygon class="cls-37" points="327.67 687.49 360.68 754.6 375.86 724.26 327.67 687.49"/><polygon class="cls-37" points="423.02 680.06 403.89 666.87 403.89 713.71 431.27 713.71 423.02 680.06"/><polygon class="cls-37" points="347.82 641.82 331.66 643.45 321.76 675.12 325.29 682.24 353.43 672.48 347.82 641.82"/><polygon class="cls-44" points="506.8 691.94 478.76 693.26 474.14 717.66 508.12 702.82 506.8 691.94"/><polygon class="cls-21" points="125.06 668.81 123.23 681.21 132.03 690.27 171.38 692.15 171.38 673.19 125.06 668.81"/><polygon class="cls-21" points="216.6 643.28 196.54 664.8 209.31 680.8 226.45 680.8 226.45 641.82 216.6 643.28"/><path class="cls-39" d="M162.86,741.62l-34.28,25.17L117.27,731A121.69,121.69,0,0,1,162.86,741.62Z" transform="translate(0.5 0.5)"/><polygon class="cls-25" points="257.22 168.75 224.16 185.13 253.75 214.4 283.66 194.25 257.22 168.75"/><polygon class="cls-25" points="207.79 170.96 205.27 212.83 159.56 171.75 207.79 170.96"/><path class="cls-25" d="M323.77,141.18,309.29,192.5l-19.74-5L287.88,156S315.9,142.13,323.77,141.18Z" transform="translate(0.5 0.5)"/><polygon class="cls-25" points="374.01 188.9 347.25 187.64 342.21 214.4 362.99 224.48 383.14 203.07 374.01 188.9"/><polygon class="cls-25" points="235.81 108 238.64 152.38 243.68 155.53 288.38 152.38 288.7 138.53 235.81 108"/><line class="cls-52" x1="507.47" y1="641.82" x2="87.83" y2="641.82"/><path class="cls-52" d="M291.87,72.12C236.13,92.21,191,127.47,155.55,168L279.42,282.17h10.14" transform="translate(0.5 0.5)"/><path class="cls-52" d="M291.38,71.88S353.07,81.67,430,158.22L301.94,282.17H289.55" transform="translate(0.5 0.5)"/><path class="cls-52" d="M460.29,190.9C450,178.84,439.84,168,430,158.22L301.94,282.17H279.42L155.55,168c-33.32,38.16-55.88,81-64.41,120.09a157,157,0,0,0-3.81,33.3V776.53H507V333.61C507,281.63,496.89,240.24,460.29,190.9Z" transform="translate(0.5 0.5)"/><line class="cls-52" x1="176.86" y1="400.37" x2="87.83" y2="542.29"/><line class="cls-52" x1="130.61" y1="474.1" x2="230.36" y2="474.1"/><line class="cls-52" x1="408.19" y1="399.26" x2="507.46" y2="540.04"/><line class="cls-52" x1="406.63" y1="408.61" x2="406.63" y2="591.14"/><line class="cls-52" x1="454.46" y1="468.51" x2="358.21" y2="468.51"/><line class="cls-52" x1="91.38" y1="641.82" x2="271.51" y2="537.05"/><line class="cls-52" x1="173.24" y1="375.5" x2="91.25" y2="290.49"/><polygon class="cls-52" points="306.95 641.82 271.47 641.82 202.69 777.16 368.33 777.12 306.95 641.82"/><path class="cls-52" d="M87.33,647.75s34.61,29,64.1,64.31,47,63.25,47,63.25" transform="translate(0.5 0.5)"/><line class="cls-52" x1="505.81" y1="644.44" x2="368.33" y2="777.12"/><line class="cls-52" x1="505.48" y1="641.82" x2="306.82" y2="539.98"/><line class="cls-52" x1="171.69" y1="408.61" x2="171.69" y2="592.86"/><polygon class="cls-53" points="313.83 284.27 273.93 284.27 173.24 375.5 173.24 407.61 273.93 540.24 310.12 539.96 406.67 409.12 406.67 372.84 313.83 284.27"/><polygon class="cls-54" points="309.29 478.12 308.41 493.77 336.02 504.86 347.4 488.16 309.29 478.12"/><polygon class="cls-55" points="257.44 299.21 241.67 313.5 264.98 315.63 257.44 299.21"/><polygon class="cls-55" points="327.31 315.63 309.49 310.95 306.82 327.15 331.45 336.31 349.32 318.13 327.31 315.63"/><polygon class="cls-55" points="368.2 336.14 360.7 375.5 374.58 375.5 386.23 353.31 368.2 336.14"/><path class="cls-55" d="M257.27,343.57,237.6,375h33.68l2.15-4.32C273.43,369.79,257.27,343.57,257.27,343.57Z" transform="translate(0.5 0.5)"/><polygon class="cls-55" points="237.21 402.78 231.09 408.8 255.53 437.35 271.99 442.12 275.91 404.85 237.21 402.78"/><polygon class="cls-55" points="249.32 503.82 255.6 516.1 259.96 518 271.18 516.82 272.59 468.44 249.32 503.82"/><polygon class="cls-55" points="366.61 431.44 347.05 426.44 345.17 428.32 345.17 492.18 372.22 452.71 366.61 431.44"/><polygon class="cls-54" points="327.54 355.36 349.45 377.54 361.74 372.46 365.75 351.89 327.54 355.36"/><polygon class="cls-54" points="374.3 416.02 347.05 426.44 371.71 456.49 394.56 425.53 374.3 416.02"/><polygon class="cls-54" points="271.43 434.19 232.42 408.53 228.41 409.34 230.81 428.31 273.93 469.72 271.43 434.19"/><polygon class="cls-54" points="176.04 408.53 194.36 435.42 216.92 407.33 176.04 408.53"/><polygon class="cls-54" points="200.09 353.23 175.21 373.71 219.59 375.5 219.59 364.45 200.09 353.23"/><polygon class="cls-54" points="251.12 331.31 270.36 368.19 273.93 371.66 273.93 338.8 251.12 331.31"/><polygon class="cls-54" points="329.31 299.04 325.94 298.98 309.64 306.46 308.57 310.74 347.05 319.56 329.31 299.04"/><polygon class="cls-52" points="313.83 284.27 273.93 284.27 173.24 375.5 173.24 407.61 273.93 540.24 310.12 539.96 406.67 409.12 406.67 372.84 313.83 284.27"/><polygon class="cls-56" points="406.67 375.5 306.82 375.5 306.82 284.28 273.93 284.28 273.93 375.5 173.24 375.5 173.24 407.33 273.93 407.33 273.93 639.69 306.82 639.69 306.82 407.33 406.67 407.33 406.67 375.5"/><polygon class="cls-57" points="406.67 375.5 306.82 375.5 306.82 284.28 273.93 284.28 273.93 375.5 173.24 375.5 173.24 407.33 273.93 407.33 273.93 639.69 306.82 639.69 306.82 407.33 406.67 407.33 406.67 375.5"/><polygon class="cls-20" points="161.65 282.84 147.67 282.84 140.04 308.25 166.09 320.32 180.39 291.73 161.65 282.84"/><polygon class="cls-20" points="168.95 214.22 177.85 248.84 155.93 257.74 141.95 222.48 168.95 214.22"/><line class="cls-52" x1="278.61" y1="281.47" x2="93.83" y2="281.47"/><polyline class="cls-52" points="302.44 282.67 503.11 282.67 406.67 372.84"/><line class="cls-52" x1="292.03" y1="282.67" x2="292.03" y2="76.49"/></g></svg>